<mxfile host="app.diagrams.net" agent="Mozilla/5.0 (Windows NT 10.0; Win64; x64) AppleWebKit/537.36 (KHTML, like Gecko) Chrome/133.0.0.0 Safari/537.36" version="26.0.16" pages="3">
  <diagram id="UR7LpyWgG5434pzZxf7Y" name="AS IS">
    <mxGraphModel dx="2114" dy="1154" grid="1" gridSize="10" guides="1" tooltips="1" connect="1" arrows="1" fold="1" page="1" pageScale="1" pageWidth="827" pageHeight="1169" math="0" shadow="0">
      <root>
        <mxCell id="0" />
        <mxCell id="1" parent="0" />
        <mxCell id="lmXvjwLas6gOHOzReCN6-4" value="Да" style="text;html=1;align=center;verticalAlign=middle;resizable=0;points=[];autosize=1;strokeColor=none;fillColor=none;" parent="1" vertex="1">
          <mxGeometry x="1200" y="938" width="40" height="30" as="geometry" />
        </mxCell>
        <mxCell id="lmXvjwLas6gOHOzReCN6-5" value="Нет" style="text;html=1;align=center;verticalAlign=middle;resizable=0;points=[];autosize=1;strokeColor=none;fillColor=none;" parent="1" vertex="1">
          <mxGeometry x="1190" y="808" width="40" height="30" as="geometry" />
        </mxCell>
        <mxCell id="lmXvjwLas6gOHOzReCN6-6" value="Благотворитель" style="swimlane;startSize=20;horizontal=0;html=1;whiteSpace=wrap;strokeWidth=1;fillColor=none;" parent="1" vertex="1">
          <mxGeometry x="90" y="1140" width="5650" height="360" as="geometry" />
        </mxCell>
        <mxCell id="lmXvjwLas6gOHOzReCN6-7" value="&lt;span style=&quot;font-size: 10px;&quot;&gt;Заходит в группу&lt;/span&gt;&lt;div&gt;&lt;span style=&quot;font-size: 10px;&quot;&gt;в ВК&lt;/span&gt;&lt;/div&gt;" style="rounded=1;whiteSpace=wrap;html=1;shadow=0;labelBackgroundColor=none;strokeWidth=1;fontFamily=Verdana;fontSize=8;align=center;" parent="lmXvjwLas6gOHOzReCN6-6" vertex="1">
          <mxGeometry x="1600" y="75.97000000000008" width="130" height="68.06" as="geometry" />
        </mxCell>
        <mxCell id="lmXvjwLas6gOHOzReCN6-8" value="&lt;span style=&quot;font-size: 10px;&quot;&gt;Сканирует QR код&lt;/span&gt;" style="rounded=1;whiteSpace=wrap;html=1;shadow=0;labelBackgroundColor=none;strokeWidth=1;fontFamily=Verdana;fontSize=8;align=center;" parent="lmXvjwLas6gOHOzReCN6-6" vertex="1">
          <mxGeometry x="2290" y="27" width="130" height="68.06" as="geometry" />
        </mxCell>
        <mxCell id="lmXvjwLas6gOHOzReCN6-9" value="&lt;span style=&quot;font-size: 10px;&quot;&gt;Выбирает семью, которой хочет помочь&lt;/span&gt;" style="rounded=1;whiteSpace=wrap;html=1;shadow=0;labelBackgroundColor=none;strokeWidth=1;fontFamily=Verdana;fontSize=8;align=center;" parent="lmXvjwLas6gOHOzReCN6-6" vertex="1">
          <mxGeometry x="2290" y="118.94" width="130" height="68.06" as="geometry" />
        </mxCell>
        <mxCell id="lmXvjwLas6gOHOzReCN6-10" value="&lt;span style=&quot;font-size: 10px;&quot;&gt;Направляет деньги&amp;nbsp;&lt;/span&gt;&lt;span style=&quot;font-size: 10px; background-color: transparent; color: light-dark(rgb(0, 0, 0), rgb(255, 255, 255));&quot;&gt;на счет фонда&lt;/span&gt;" style="rounded=1;whiteSpace=wrap;html=1;shadow=0;labelBackgroundColor=none;strokeWidth=1;fontFamily=Verdana;fontSize=8;align=center;" parent="lmXvjwLas6gOHOzReCN6-6" vertex="1">
          <mxGeometry x="2480" y="27" width="130" height="68.06" as="geometry" />
        </mxCell>
        <mxCell id="lmXvjwLas6gOHOzReCN6-11" value="&lt;span style=&quot;font-size: 10px;&quot;&gt;Отправляет запрос администратору сайта на получение контактов семьи&lt;/span&gt;" style="rounded=1;whiteSpace=wrap;html=1;shadow=0;labelBackgroundColor=none;strokeWidth=1;fontFamily=Verdana;fontSize=8;align=center;" parent="lmXvjwLas6gOHOzReCN6-6" vertex="1">
          <mxGeometry x="2480" y="118.94" width="130" height="68.06" as="geometry" />
        </mxCell>
        <mxCell id="lmXvjwLas6gOHOzReCN6-12" value="&lt;span style=&quot;font-size: 10px;&quot;&gt;Видит посты о помощи&lt;/span&gt;" style="rounded=1;whiteSpace=wrap;html=1;shadow=0;labelBackgroundColor=none;strokeWidth=1;fontFamily=Verdana;fontSize=8;align=center;" parent="lmXvjwLas6gOHOzReCN6-6" vertex="1">
          <mxGeometry x="1800" y="72.97000000000003" width="130" height="68.06" as="geometry" />
        </mxCell>
        <mxCell id="lmXvjwLas6gOHOzReCN6-13" value="&lt;span style=&quot;font-size: 10px;&quot;&gt;Выбирает способ&amp;nbsp;&lt;br&gt;&lt;/span&gt;&lt;div&gt;&lt;span style=&quot;font-size: 10px;&quot;&gt;помощи&lt;/span&gt;&lt;/div&gt;" style="rounded=1;whiteSpace=wrap;html=1;shadow=0;labelBackgroundColor=none;strokeWidth=1;fontFamily=Verdana;fontSize=8;align=center;" parent="lmXvjwLas6gOHOzReCN6-6" vertex="1">
          <mxGeometry x="2000" y="72.97000000000003" width="130" height="68.06" as="geometry" />
        </mxCell>
        <mxCell id="lmXvjwLas6gOHOzReCN6-14" value="" style="points=[[0.25,0.25,0],[0.5,0,0],[0.75,0.25,0],[1,0.5,0],[0.75,0.75,0],[0.5,1,0],[0.25,0.75,0],[0,0.5,0]];shape=mxgraph.bpmn.gateway2;html=1;verticalLabelPosition=bottom;labelBackgroundColor=#ffffff;verticalAlign=top;align=center;perimeter=rhombusPerimeter;outlineConnect=0;outline=end;symbol=general;" parent="lmXvjwLas6gOHOzReCN6-6" vertex="1">
          <mxGeometry x="2180" y="82" width="50" height="50" as="geometry" />
        </mxCell>
        <mxCell id="lmXvjwLas6gOHOzReCN6-15" value="как помочь?" style="text;html=1;align=center;verticalAlign=middle;resizable=0;points=[];autosize=1;strokeColor=none;fillColor=none;" parent="lmXvjwLas6gOHOzReCN6-6" vertex="1">
          <mxGeometry x="2130" y="131.99999999999997" width="90" height="30" as="geometry" />
        </mxCell>
        <mxCell id="lmXvjwLas6gOHOzReCN6-16" value="Деньгами" style="text;html=1;align=center;verticalAlign=middle;resizable=0;points=[];autosize=1;strokeColor=none;fillColor=none;" parent="lmXvjwLas6gOHOzReCN6-6" vertex="1">
          <mxGeometry x="2210" y="27" width="80" height="30" as="geometry" />
        </mxCell>
        <mxCell id="lmXvjwLas6gOHOzReCN6-17" value="Вещами" style="text;html=1;align=center;verticalAlign=middle;resizable=0;points=[];autosize=1;strokeColor=none;fillColor=none;" parent="lmXvjwLas6gOHOzReCN6-6" vertex="1">
          <mxGeometry x="2215" y="157" width="70" height="30" as="geometry" />
        </mxCell>
        <mxCell id="lmXvjwLas6gOHOzReCN6-18" value="" style="endArrow=classic;html=1;rounded=0;exitX=1;exitY=0.5;exitDx=0;exitDy=0;exitPerimeter=0;" parent="lmXvjwLas6gOHOzReCN6-6" edge="1">
          <mxGeometry width="50" height="50" relative="1" as="geometry">
            <mxPoint x="1730" y="109.5" as="sourcePoint" />
            <mxPoint x="1800" y="110" as="targetPoint" />
          </mxGeometry>
        </mxCell>
        <mxCell id="lmXvjwLas6gOHOzReCN6-19" value="" style="endArrow=classic;html=1;rounded=0;exitX=1;exitY=0.5;exitDx=0;exitDy=0;exitPerimeter=0;" parent="lmXvjwLas6gOHOzReCN6-6" edge="1">
          <mxGeometry width="50" height="50" relative="1" as="geometry">
            <mxPoint x="1930" y="106.5" as="sourcePoint" />
            <mxPoint x="2000" y="107" as="targetPoint" />
          </mxGeometry>
        </mxCell>
        <mxCell id="lmXvjwLas6gOHOzReCN6-20" value="" style="endArrow=classic;html=1;rounded=0;exitX=1;exitY=0.5;exitDx=0;exitDy=0;exitPerimeter=0;" parent="lmXvjwLas6gOHOzReCN6-6" edge="1">
          <mxGeometry width="50" height="50" relative="1" as="geometry">
            <mxPoint x="2130" y="106.5" as="sourcePoint" />
            <mxPoint x="2180" y="107" as="targetPoint" />
          </mxGeometry>
        </mxCell>
        <mxCell id="lmXvjwLas6gOHOzReCN6-21" value="" style="endArrow=classic;html=1;rounded=0;exitX=0.5;exitY=0;exitDx=0;exitDy=0;exitPerimeter=0;" parent="lmXvjwLas6gOHOzReCN6-6" source="lmXvjwLas6gOHOzReCN6-14" edge="1">
          <mxGeometry width="50" height="50" relative="1" as="geometry">
            <mxPoint x="2200" y="60" as="sourcePoint" />
            <mxPoint x="2290" y="61" as="targetPoint" />
            <Array as="points">
              <mxPoint x="2205" y="61" />
            </Array>
          </mxGeometry>
        </mxCell>
        <mxCell id="lmXvjwLas6gOHOzReCN6-22" value="" style="endArrow=classic;html=1;rounded=0;entryX=0;entryY=0.5;entryDx=0;entryDy=0;" parent="lmXvjwLas6gOHOzReCN6-6" target="lmXvjwLas6gOHOzReCN6-9" edge="1">
          <mxGeometry width="50" height="50" relative="1" as="geometry">
            <mxPoint x="2205" y="132" as="sourcePoint" />
            <mxPoint x="2280" y="150" as="targetPoint" />
            <Array as="points">
              <mxPoint x="2205" y="152" />
            </Array>
          </mxGeometry>
        </mxCell>
        <mxCell id="lmXvjwLas6gOHOzReCN6-23" value="" style="endArrow=classic;html=1;rounded=0;exitX=1;exitY=0.5;exitDx=0;exitDy=0;exitPerimeter=0;" parent="lmXvjwLas6gOHOzReCN6-6" edge="1">
          <mxGeometry width="50" height="50" relative="1" as="geometry">
            <mxPoint x="2420" y="60.52999999999997" as="sourcePoint" />
            <mxPoint x="2480" y="61" as="targetPoint" />
          </mxGeometry>
        </mxCell>
        <mxCell id="lmXvjwLas6gOHOzReCN6-24" value="" style="endArrow=classic;html=1;rounded=0;exitX=1;exitY=0.5;exitDx=0;exitDy=0;exitPerimeter=0;" parent="lmXvjwLas6gOHOzReCN6-6" edge="1">
          <mxGeometry width="50" height="50" relative="1" as="geometry">
            <mxPoint x="2420" y="152.47000000000003" as="sourcePoint" />
            <mxPoint x="2480" y="152.94000000000005" as="targetPoint" />
          </mxGeometry>
        </mxCell>
        <mxCell id="lmXvjwLas6gOHOzReCN6-25" value="" style="points=[[0.145,0.145,0],[0.5,0,0],[0.855,0.145,0],[1,0.5,0],[0.855,0.855,0],[0.5,1,0],[0.145,0.855,0],[0,0.5,0]];shape=mxgraph.bpmn.event;html=1;verticalLabelPosition=bottom;labelBackgroundColor=#ffffff;verticalAlign=top;align=center;perimeter=ellipsePerimeter;outlineConnect=0;aspect=fixed;outline=catching;symbol=message;" parent="lmXvjwLas6gOHOzReCN6-6" vertex="1">
          <mxGeometry x="3110" y="132" width="55" height="55" as="geometry" />
        </mxCell>
        <mxCell id="lmXvjwLas6gOHOzReCN6-26" value="Получает контакты" style="text;html=1;align=center;verticalAlign=middle;resizable=0;points=[];autosize=1;strokeColor=none;fillColor=none;" parent="lmXvjwLas6gOHOzReCN6-6" vertex="1">
          <mxGeometry x="3072.5" y="190" width="130" height="30" as="geometry" />
        </mxCell>
        <mxCell id="lmXvjwLas6gOHOzReCN6-27" value="" style="endArrow=classic;html=1;rounded=0;entryX=0.5;entryY=0;entryDx=0;entryDy=0;entryPerimeter=0;" parent="lmXvjwLas6gOHOzReCN6-6" target="lmXvjwLas6gOHOzReCN6-25" edge="1">
          <mxGeometry width="50" height="50" relative="1" as="geometry">
            <mxPoint x="3137" y="-141.94000000000005" as="sourcePoint" />
            <mxPoint x="3137" y="20" as="targetPoint" />
            <Array as="points" />
          </mxGeometry>
        </mxCell>
        <mxCell id="lmXvjwLas6gOHOzReCN6-28" value="&lt;span style=&quot;font-size: 10px;&quot;&gt;Отправляет посылку&lt;/span&gt;&lt;div&gt;&lt;span style=&quot;font-size: 10px;&quot;&gt;с вещами нуждающейся семье&lt;/span&gt;&lt;/div&gt;" style="rounded=1;whiteSpace=wrap;html=1;shadow=0;labelBackgroundColor=none;strokeWidth=1;fontFamily=Verdana;fontSize=8;align=center;" parent="lmXvjwLas6gOHOzReCN6-6" vertex="1">
          <mxGeometry x="4570" y="75.97000000000003" width="130" height="68.06" as="geometry" />
        </mxCell>
        <mxCell id="lmXvjwLas6gOHOzReCN6-29" value="" style="points=[[0.25,0.25,0],[0.5,0,0],[0.75,0.25,0],[1,0.5,0],[0.75,0.75,0],[0.5,1,0],[0.25,0.75,0],[0,0.5,0]];shape=mxgraph.bpmn.gateway2;html=1;verticalLabelPosition=bottom;labelBackgroundColor=#ffffff;verticalAlign=top;align=center;perimeter=rhombusPerimeter;outlineConnect=0;outline=none;symbol=none;gwType=exclusive;" parent="lmXvjwLas6gOHOzReCN6-6" vertex="1">
          <mxGeometry x="3220" y="127.97000000000003" width="50" height="50" as="geometry" />
        </mxCell>
        <mxCell id="lmXvjwLas6gOHOzReCN6-30" value="Есть деньги на&lt;div&gt;отправку?&lt;/div&gt;" style="text;html=1;align=center;verticalAlign=middle;resizable=0;points=[];autosize=1;strokeColor=none;fillColor=none;" parent="lmXvjwLas6gOHOzReCN6-6" vertex="1">
          <mxGeometry x="3130" y="101.03000000000003" width="110" height="40" as="geometry" />
        </mxCell>
        <mxCell id="lmXvjwLas6gOHOzReCN6-31" value="" style="endArrow=classic;html=1;rounded=0;exitX=0.5;exitY=1;exitDx=0;exitDy=0;exitPerimeter=0;entryX=0.5;entryY=1;entryDx=0;entryDy=0;entryPerimeter=0;" parent="lmXvjwLas6gOHOzReCN6-6" source="lmXvjwLas6gOHOzReCN6-29" target="lmXvjwLas6gOHOzReCN6-36" edge="1">
          <mxGeometry width="50" height="50" relative="1" as="geometry">
            <mxPoint x="3300" y="290" as="sourcePoint" />
            <mxPoint x="3560" y="220" as="targetPoint" />
            <Array as="points">
              <mxPoint x="3245" y="220" />
              <mxPoint x="3545" y="220" />
            </Array>
          </mxGeometry>
        </mxCell>
        <mxCell id="lmXvjwLas6gOHOzReCN6-32" value="" style="endArrow=classic;html=1;rounded=0;exitX=1;exitY=0.5;exitDx=0;exitDy=0;exitPerimeter=0;" parent="lmXvjwLas6gOHOzReCN6-6" edge="1">
          <mxGeometry width="50" height="50" relative="1" as="geometry">
            <mxPoint x="3165" y="155.47000000000003" as="sourcePoint" />
            <mxPoint x="3225" y="155.94000000000005" as="targetPoint" />
          </mxGeometry>
        </mxCell>
        <mxCell id="lmXvjwLas6gOHOzReCN6-33" value="Нет" style="text;html=1;align=center;verticalAlign=middle;resizable=0;points=[];autosize=1;strokeColor=none;fillColor=none;" parent="lmXvjwLas6gOHOzReCN6-6" vertex="1">
          <mxGeometry x="3225" y="72.97000000000003" width="40" height="30" as="geometry" />
        </mxCell>
        <mxCell id="lmXvjwLas6gOHOzReCN6-34" value="Да" style="text;html=1;align=center;verticalAlign=middle;resizable=0;points=[];autosize=1;strokeColor=none;fillColor=none;" parent="lmXvjwLas6gOHOzReCN6-6" vertex="1">
          <mxGeometry x="3225" y="220" width="40" height="30" as="geometry" />
        </mxCell>
        <mxCell id="lmXvjwLas6gOHOzReCN6-35" value="&lt;span style=&quot;font-size: 10px;&quot;&gt;Просит фонд отплатить&lt;/span&gt;&lt;div&gt;&lt;span style=&quot;font-size: 10px;&quot;&gt;доставку посылки&lt;/span&gt;&lt;/div&gt;" style="rounded=1;whiteSpace=wrap;html=1;shadow=0;labelBackgroundColor=none;strokeWidth=1;fontFamily=Verdana;fontSize=8;align=center;" parent="lmXvjwLas6gOHOzReCN6-6" vertex="1">
          <mxGeometry x="3310" y="91.03" width="130" height="68.06" as="geometry" />
        </mxCell>
        <mxCell id="lmXvjwLas6gOHOzReCN6-36" value="" style="points=[[0.25,0.25,0],[0.5,0,0],[0.75,0.25,0],[1,0.5,0],[0.75,0.75,0],[0.5,1,0],[0.25,0.75,0],[0,0.5,0]];shape=mxgraph.bpmn.gateway2;html=1;verticalLabelPosition=bottom;labelBackgroundColor=#ffffff;verticalAlign=top;align=center;perimeter=rhombusPerimeter;outlineConnect=0;outline=none;symbol=none;gwType=exclusive;" parent="lmXvjwLas6gOHOzReCN6-6" vertex="1">
          <mxGeometry x="3520" y="91.02999999999997" width="50" height="50" as="geometry" />
        </mxCell>
        <mxCell id="lmXvjwLas6gOHOzReCN6-37" value="" style="endArrow=classic;html=1;rounded=0;entryX=-0.008;entryY=0.661;entryDx=0;entryDy=0;entryPerimeter=0;" parent="lmXvjwLas6gOHOzReCN6-6" target="lmXvjwLas6gOHOzReCN6-28" edge="1">
          <mxGeometry width="50" height="50" relative="1" as="geometry">
            <mxPoint x="3570" y="117" as="sourcePoint" />
            <mxPoint x="3640" y="117" as="targetPoint" />
          </mxGeometry>
        </mxCell>
        <mxCell id="lmXvjwLas6gOHOzReCN6-38" value="Представитель фонда" style="swimlane;startSize=20;horizontal=0;html=1;whiteSpace=wrap;strokeWidth=1;fillColor=none;" parent="1" vertex="1">
          <mxGeometry x="90" y="800" width="5650" height="340" as="geometry" />
        </mxCell>
        <mxCell id="lmXvjwLas6gOHOzReCN6-39" value="" style="points=[[0.145,0.145,0],[0.5,0,0],[0.855,0.145,0],[1,0.5,0],[0.855,0.855,0],[0.5,1,0],[0.145,0.855,0],[0,0.5,0]];shape=mxgraph.bpmn.event;html=1;verticalLabelPosition=bottom;labelBackgroundColor=#ffffff;verticalAlign=top;align=center;perimeter=ellipsePerimeter;outlineConnect=0;aspect=fixed;outline=catching;symbol=message;" parent="lmXvjwLas6gOHOzReCN6-38" vertex="1">
          <mxGeometry x="317.5" y="91.12" width="55" height="55" as="geometry" />
        </mxCell>
        <mxCell id="lmXvjwLas6gOHOzReCN6-40" value="Получает сообщение о помощи" style="text;html=1;align=center;verticalAlign=middle;whiteSpace=wrap;rounded=0;" parent="lmXvjwLas6gOHOzReCN6-38" vertex="1">
          <mxGeometry x="317.5" y="163.06" width="60" height="30" as="geometry" />
        </mxCell>
        <mxCell id="lmXvjwLas6gOHOzReCN6-41" value="&lt;span style=&quot;font-size: 10px;&quot;&gt;Просит выслать подтверждающие документы ддя проверки (видео, свидетельства, и тд)&lt;/span&gt;" style="rounded=1;whiteSpace=wrap;html=1;shadow=0;labelBackgroundColor=none;strokeWidth=1;fontFamily=Verdana;fontSize=8;align=center;" parent="lmXvjwLas6gOHOzReCN6-38" vertex="1">
          <mxGeometry x="450" y="71.11999999999999" width="100" height="88.88" as="geometry" />
        </mxCell>
        <mxCell id="lmXvjwLas6gOHOzReCN6-42" value="" style="points=[[0.145,0.145,0],[0.5,0,0],[0.855,0.145,0],[1,0.5,0],[0.855,0.855,0],[0.5,1,0],[0.145,0.855,0],[0,0.5,0]];shape=mxgraph.bpmn.event;html=1;verticalLabelPosition=bottom;labelBackgroundColor=#ffffff;verticalAlign=top;align=center;perimeter=ellipsePerimeter;outlineConnect=0;aspect=fixed;outline=catching;symbol=message;" parent="lmXvjwLas6gOHOzReCN6-38" vertex="1">
          <mxGeometry x="800" y="60.00000000000006" width="55" height="55" as="geometry" />
        </mxCell>
        <mxCell id="lmXvjwLas6gOHOzReCN6-43" value="Получает пакет&amp;nbsp;&lt;div&gt;документов&lt;/div&gt;" style="text;html=1;align=center;verticalAlign=middle;resizable=0;points=[];autosize=1;strokeColor=none;fillColor=none;" parent="lmXvjwLas6gOHOzReCN6-38" vertex="1">
          <mxGeometry x="800" y="120" width="110" height="40" as="geometry" />
        </mxCell>
        <mxCell id="lmXvjwLas6gOHOzReCN6-44" value="&lt;span style=&quot;font-size: 10px;&quot;&gt;Проверяет документы на соответствии&lt;/span&gt;" style="rounded=1;whiteSpace=wrap;html=1;shadow=0;labelBackgroundColor=none;strokeWidth=1;fontFamily=Verdana;fontSize=8;align=center;" parent="lmXvjwLas6gOHOzReCN6-38" vertex="1">
          <mxGeometry x="900" y="50" width="100" height="68.88" as="geometry" />
        </mxCell>
        <mxCell id="lmXvjwLas6gOHOzReCN6-45" value="" style="points=[[0.25,0.25,0],[0.5,0,0],[0.75,0.25,0],[1,0.5,0],[0.75,0.75,0],[0.5,1,0],[0.25,0.75,0],[0,0.5,0]];shape=mxgraph.bpmn.gateway2;html=1;verticalLabelPosition=bottom;labelBackgroundColor=#ffffff;verticalAlign=top;align=center;perimeter=rhombusPerimeter;outlineConnect=0;outline=none;symbol=none;gwType=exclusive;" parent="lmXvjwLas6gOHOzReCN6-38" vertex="1">
          <mxGeometry x="1050" y="59.440000000000055" width="50" height="50" as="geometry" />
        </mxCell>
        <mxCell id="lmXvjwLas6gOHOzReCN6-46" value="Проверка пройдена?" style="text;html=1;align=center;verticalAlign=middle;resizable=0;points=[];autosize=1;strokeColor=none;fillColor=none;" parent="lmXvjwLas6gOHOzReCN6-38" vertex="1">
          <mxGeometry x="990" y="109.44" width="140" height="30" as="geometry" />
        </mxCell>
        <mxCell id="lmXvjwLas6gOHOzReCN6-47" value="" style="points=[[0.145,0.145,0],[0.5,0,0],[0.855,0.145,0],[1,0.5,0],[0.855,0.855,0],[0.5,1,0],[0.145,0.855,0],[0,0.5,0]];shape=mxgraph.bpmn.event;html=1;verticalLabelPosition=bottom;labelBackgroundColor=#ffffff;verticalAlign=top;align=center;perimeter=ellipsePerimeter;outlineConnect=0;aspect=fixed;outline=end;symbol=terminate2;" parent="lmXvjwLas6gOHOzReCN6-38" vertex="1">
          <mxGeometry x="1150" y="11.120000000000005" width="50" height="50" as="geometry" />
        </mxCell>
        <mxCell id="lmXvjwLas6gOHOzReCN6-48" value="Отказ в помощи" style="text;html=1;align=center;verticalAlign=middle;resizable=0;points=[];autosize=1;strokeColor=none;fillColor=none;" parent="lmXvjwLas6gOHOzReCN6-38" vertex="1">
          <mxGeometry x="1190" width="110" height="30" as="geometry" />
        </mxCell>
        <mxCell id="lmXvjwLas6gOHOzReCN6-49" value="&lt;span style=&quot;font-size: 10px;&quot;&gt;Просит выслать информацию для публикации в группе ( в т.ч. фото)&lt;/span&gt;" style="rounded=1;whiteSpace=wrap;html=1;shadow=0;labelBackgroundColor=none;strokeWidth=1;fontFamily=Verdana;fontSize=8;align=center;" parent="lmXvjwLas6gOHOzReCN6-38" vertex="1">
          <mxGeometry x="1150" y="100.56" width="110" height="59.44" as="geometry" />
        </mxCell>
        <mxCell id="lmXvjwLas6gOHOzReCN6-50" value="" style="points=[[0.145,0.145,0],[0.5,0,0],[0.855,0.145,0],[1,0.5,0],[0.855,0.855,0],[0.5,1,0],[0.145,0.855,0],[0,0.5,0]];shape=mxgraph.bpmn.event;html=1;verticalLabelPosition=bottom;labelBackgroundColor=#ffffff;verticalAlign=top;align=center;perimeter=ellipsePerimeter;outlineConnect=0;aspect=fixed;outline=catching;symbol=message;" parent="lmXvjwLas6gOHOzReCN6-38" vertex="1">
          <mxGeometry x="1460" y="46.94" width="55" height="55" as="geometry" />
        </mxCell>
        <mxCell id="lmXvjwLas6gOHOzReCN6-51" value="&lt;span style=&quot;font-size: 10px;&quot;&gt;Размещает информацию&lt;/span&gt;&lt;div&gt;&lt;span style=&quot;font-size: 10px;&quot;&gt;в ВК&lt;/span&gt;&lt;/div&gt;" style="rounded=1;whiteSpace=wrap;html=1;shadow=0;labelBackgroundColor=none;strokeWidth=1;fontFamily=Verdana;fontSize=8;align=center;" parent="lmXvjwLas6gOHOzReCN6-38" vertex="1">
          <mxGeometry x="1590" y="32.50000000000006" width="130" height="68.06" as="geometry" />
        </mxCell>
        <mxCell id="lmXvjwLas6gOHOzReCN6-52" value="" style="endArrow=classic;html=1;rounded=0;exitX=1;exitY=0.5;exitDx=0;exitDy=0;exitPerimeter=0;" parent="lmXvjwLas6gOHOzReCN6-38" source="lmXvjwLas6gOHOzReCN6-39" edge="1">
          <mxGeometry width="50" height="50" relative="1" as="geometry">
            <mxPoint x="372.5" y="114" as="sourcePoint" />
            <mxPoint x="450" y="119" as="targetPoint" />
          </mxGeometry>
        </mxCell>
        <mxCell id="lmXvjwLas6gOHOzReCN6-53" value="" style="endArrow=classic;html=1;rounded=0;" parent="lmXvjwLas6gOHOzReCN6-38" edge="1">
          <mxGeometry width="50" height="50" relative="1" as="geometry">
            <mxPoint x="860" y="91" as="sourcePoint" />
            <mxPoint x="902" y="91.12" as="targetPoint" />
          </mxGeometry>
        </mxCell>
        <mxCell id="lmXvjwLas6gOHOzReCN6-54" value="" style="endArrow=classic;html=1;rounded=0;exitX=1;exitY=0.5;exitDx=0;exitDy=0;exitPerimeter=0;entryX=0;entryY=0.5;entryDx=0;entryDy=0;entryPerimeter=0;" parent="lmXvjwLas6gOHOzReCN6-38" target="lmXvjwLas6gOHOzReCN6-45" edge="1">
          <mxGeometry width="50" height="50" relative="1" as="geometry">
            <mxPoint x="1000" y="83.52999999999997" as="sourcePoint" />
            <mxPoint x="1077" y="83.52999999999997" as="targetPoint" />
          </mxGeometry>
        </mxCell>
        <mxCell id="lmXvjwLas6gOHOzReCN6-55" value="" style="endArrow=classic;html=1;rounded=0;exitX=1;exitY=0.5;exitDx=0;exitDy=0;exitPerimeter=0;" parent="lmXvjwLas6gOHOzReCN6-38" edge="1">
          <mxGeometry width="50" height="50" relative="1" as="geometry">
            <mxPoint x="1260" y="134.44000000000005" as="sourcePoint" />
            <mxPoint x="1330" y="-140" as="targetPoint" />
            <Array as="points">
              <mxPoint x="1330" y="134" />
            </Array>
          </mxGeometry>
        </mxCell>
        <mxCell id="lmXvjwLas6gOHOzReCN6-56" value="Получает информацию&lt;div&gt;для размещения поста в группе ВК&lt;/div&gt;" style="text;html=1;align=center;verticalAlign=middle;resizable=0;points=[];autosize=1;strokeColor=none;fillColor=none;" parent="lmXvjwLas6gOHOzReCN6-38" vertex="1">
          <mxGeometry x="1390" y="115" width="220" height="40" as="geometry" />
        </mxCell>
        <mxCell id="lmXvjwLas6gOHOzReCN6-57" value="" style="endArrow=classic;html=1;rounded=0;exitX=1;exitY=0.5;exitDx=0;exitDy=0;exitPerimeter=0;" parent="lmXvjwLas6gOHOzReCN6-38" edge="1">
          <mxGeometry width="50" height="50" relative="1" as="geometry">
            <mxPoint x="1513" y="73.94000000000005" as="sourcePoint" />
            <mxPoint x="1590" y="73.94000000000005" as="targetPoint" />
          </mxGeometry>
        </mxCell>
        <mxCell id="lmXvjwLas6gOHOzReCN6-58" value="" style="endArrow=classic;html=1;rounded=0;exitX=0.5;exitY=1;exitDx=0;exitDy=0;" parent="lmXvjwLas6gOHOzReCN6-38" edge="1">
          <mxGeometry width="50" height="50" relative="1" as="geometry">
            <mxPoint x="1652" y="100.56000000000006" as="sourcePoint" />
            <mxPoint x="1650" y="410" as="targetPoint" />
          </mxGeometry>
        </mxCell>
        <mxCell id="lmXvjwLas6gOHOzReCN6-59" value="" style="endArrow=classic;html=1;rounded=0;exitX=0.5;exitY=0;exitDx=0;exitDy=0;exitPerimeter=0;" parent="lmXvjwLas6gOHOzReCN6-38" source="lmXvjwLas6gOHOzReCN6-45" edge="1">
          <mxGeometry width="50" height="50" relative="1" as="geometry">
            <mxPoint x="1073" y="35.620000000000005" as="sourcePoint" />
            <mxPoint x="1150" y="35.620000000000005" as="targetPoint" />
            <Array as="points">
              <mxPoint x="1075" y="36" />
            </Array>
          </mxGeometry>
        </mxCell>
        <mxCell id="lmXvjwLas6gOHOzReCN6-60" value="" style="endArrow=classic;html=1;rounded=0;" parent="lmXvjwLas6gOHOzReCN6-38" edge="1">
          <mxGeometry width="50" height="50" relative="1" as="geometry">
            <mxPoint x="1075" y="109.06" as="sourcePoint" />
            <mxPoint x="1150" y="139.06" as="targetPoint" />
            <Array as="points">
              <mxPoint x="1075" y="139.44" />
            </Array>
          </mxGeometry>
        </mxCell>
        <mxCell id="lmXvjwLas6gOHOzReCN6-61" value="" style="points=[[0.145,0.145,0],[0.5,0,0],[0.855,0.145,0],[1,0.5,0],[0.855,0.855,0],[0.5,1,0],[0.145,0.855,0],[0,0.5,0]];shape=mxgraph.bpmn.event;html=1;verticalLabelPosition=bottom;labelBackgroundColor=#ffffff;verticalAlign=top;align=center;perimeter=ellipsePerimeter;outlineConnect=0;aspect=fixed;outline=catching;symbol=message;" parent="lmXvjwLas6gOHOzReCN6-38" vertex="1">
          <mxGeometry x="2630" y="130.00000000000006" width="55" height="55" as="geometry" />
        </mxCell>
        <mxCell id="lmXvjwLas6gOHOzReCN6-62" value="Получает запрос&lt;div&gt;она предоставлении контактов&lt;/div&gt;&lt;div&gt;нуждающейся семье&lt;/div&gt;" style="text;html=1;align=center;verticalAlign=middle;resizable=0;points=[];autosize=1;strokeColor=none;fillColor=none;" parent="lmXvjwLas6gOHOzReCN6-38" vertex="1">
          <mxGeometry x="2530" y="63.06" width="200" height="60" as="geometry" />
        </mxCell>
        <mxCell id="lmXvjwLas6gOHOzReCN6-63" value="&lt;span style=&quot;font-size: 10px;&quot;&gt;Связывается с семьей&lt;/span&gt;" style="rounded=1;whiteSpace=wrap;html=1;shadow=0;labelBackgroundColor=none;strokeWidth=1;fontFamily=Verdana;fontSize=8;align=center;" parent="lmXvjwLas6gOHOzReCN6-38" vertex="1">
          <mxGeometry x="2750" y="123.06" width="130" height="68.06" as="geometry" />
        </mxCell>
        <mxCell id="lmXvjwLas6gOHOzReCN6-64" value="" style="points=[[0.145,0.145,0],[0.5,0,0],[0.855,0.145,0],[1,0.5,0],[0.855,0.855,0],[0.5,1,0],[0.145,0.855,0],[0,0.5,0]];shape=mxgraph.bpmn.event;html=1;verticalLabelPosition=bottom;labelBackgroundColor=#ffffff;verticalAlign=top;align=center;perimeter=ellipsePerimeter;outlineConnect=0;aspect=fixed;outline=catching;symbol=message;" parent="lmXvjwLas6gOHOzReCN6-38" vertex="1">
          <mxGeometry x="2960" y="138.06000000000006" width="55" height="55" as="geometry" />
        </mxCell>
        <mxCell id="lmXvjwLas6gOHOzReCN6-65" value="" style="endArrow=classic;html=1;rounded=0;exitX=1;exitY=0.5;exitDx=0;exitDy=0;exitPerimeter=0;entryX=0;entryY=0.5;entryDx=0;entryDy=0;" parent="lmXvjwLas6gOHOzReCN6-38" source="lmXvjwLas6gOHOzReCN6-61" target="lmXvjwLas6gOHOzReCN6-63" edge="1">
          <mxGeometry width="50" height="50" relative="1" as="geometry">
            <mxPoint x="2690" y="160" as="sourcePoint" />
            <mxPoint x="2750" y="160.47000000000003" as="targetPoint" />
          </mxGeometry>
        </mxCell>
        <mxCell id="lmXvjwLas6gOHOzReCN6-66" value="" style="endArrow=classic;html=1;rounded=0;entryX=0.5;entryY=1;entryDx=0;entryDy=0;entryPerimeter=0;exitX=0.41;exitY=-0.001;exitDx=0;exitDy=0;exitPerimeter=0;" parent="lmXvjwLas6gOHOzReCN6-38" edge="1">
          <mxGeometry width="50" height="50" relative="1" as="geometry">
            <mxPoint x="2793" y="123.06000000000006" as="sourcePoint" />
            <mxPoint x="2790" y="-98.93999999999994" as="targetPoint" />
          </mxGeometry>
        </mxCell>
        <mxCell id="lmXvjwLas6gOHOzReCN6-67" value="Получает контакты" style="text;html=1;align=center;verticalAlign=middle;resizable=0;points=[];autosize=1;strokeColor=none;fillColor=none;" parent="lmXvjwLas6gOHOzReCN6-38" vertex="1">
          <mxGeometry x="2920" y="200" width="130" height="30" as="geometry" />
        </mxCell>
        <mxCell id="lmXvjwLas6gOHOzReCN6-68" value="&lt;span style=&quot;font-size: 10px;&quot;&gt;Отправляет контакты благотворителю&lt;/span&gt;" style="rounded=1;whiteSpace=wrap;html=1;shadow=0;labelBackgroundColor=none;strokeWidth=1;fontFamily=Verdana;fontSize=8;align=center;" parent="lmXvjwLas6gOHOzReCN6-38" vertex="1">
          <mxGeometry x="3080" y="129.99999999999994" width="130" height="68.06" as="geometry" />
        </mxCell>
        <mxCell id="lmXvjwLas6gOHOzReCN6-69" value="" style="endArrow=classic;html=1;rounded=0;exitX=1;exitY=0.5;exitDx=0;exitDy=0;exitPerimeter=0;entryX=0;entryY=0.5;entryDx=0;entryDy=0;" parent="lmXvjwLas6gOHOzReCN6-38" edge="1">
          <mxGeometry width="50" height="50" relative="1" as="geometry">
            <mxPoint x="3015" y="166.47000000000003" as="sourcePoint" />
            <mxPoint x="3080" y="165.47000000000003" as="targetPoint" />
          </mxGeometry>
        </mxCell>
        <mxCell id="lmXvjwLas6gOHOzReCN6-70" value="" style="points=[[0.145,0.145,0],[0.5,0,0],[0.855,0.145,0],[1,0.5,0],[0.855,0.855,0],[0.5,1,0],[0.145,0.855,0],[0,0.5,0]];shape=mxgraph.bpmn.event;html=1;verticalLabelPosition=bottom;labelBackgroundColor=#ffffff;verticalAlign=top;align=center;perimeter=ellipsePerimeter;outlineConnect=0;aspect=fixed;outline=catching;symbol=message;" parent="lmXvjwLas6gOHOzReCN6-38" vertex="1">
          <mxGeometry x="4090" y="117.22" width="55" height="55" as="geometry" />
        </mxCell>
        <mxCell id="lmXvjwLas6gOHOzReCN6-71" value="Информация о поступлении&lt;div&gt;денежных средств на счет фонда&lt;/div&gt;" style="text;html=1;align=center;verticalAlign=middle;resizable=0;points=[];autosize=1;strokeColor=none;fillColor=none;" parent="lmXvjwLas6gOHOzReCN6-38" vertex="1">
          <mxGeometry x="4010" y="76.66000000000005" width="210" height="40" as="geometry" />
        </mxCell>
        <mxCell id="lmXvjwLas6gOHOzReCN6-72" value="&lt;span style=&quot;font-size: 10px;&quot;&gt;Отправляет посылку семье&lt;/span&gt;" style="rounded=1;whiteSpace=wrap;html=1;shadow=0;labelBackgroundColor=none;strokeWidth=1;fontFamily=Verdana;fontSize=8;align=center;" parent="lmXvjwLas6gOHOzReCN6-38" vertex="1">
          <mxGeometry x="4440" y="118.88" width="120" height="55" as="geometry" />
        </mxCell>
        <mxCell id="lmXvjwLas6gOHOzReCN6-73" value="&lt;span style=&quot;font-size: 10px;&quot;&gt;Закупает продкуты/вещи&lt;/span&gt;" style="rounded=1;whiteSpace=wrap;html=1;shadow=0;labelBackgroundColor=none;strokeWidth=1;fontFamily=Verdana;fontSize=8;align=center;" parent="lmXvjwLas6gOHOzReCN6-38" vertex="1">
          <mxGeometry x="4240" y="114.16" width="120" height="55" as="geometry" />
        </mxCell>
        <mxCell id="lmXvjwLas6gOHOzReCN6-74" value="" style="endArrow=classic;html=1;rounded=0;exitX=0.5;exitY=0;exitDx=0;exitDy=0;" parent="lmXvjwLas6gOHOzReCN6-38" source="lmXvjwLas6gOHOzReCN6-35" edge="1">
          <mxGeometry width="50" height="50" relative="1" as="geometry">
            <mxPoint x="3380" y="360" as="sourcePoint" />
            <mxPoint x="3375" y="200" as="targetPoint" />
          </mxGeometry>
        </mxCell>
        <mxCell id="lmXvjwLas6gOHOzReCN6-75" value="" style="points=[[0.145,0.145,0],[0.5,0,0],[0.855,0.145,0],[1,0.5,0],[0.855,0.855,0],[0.5,1,0],[0.145,0.855,0],[0,0.5,0]];shape=mxgraph.bpmn.event;html=1;verticalLabelPosition=bottom;labelBackgroundColor=#ffffff;verticalAlign=top;align=center;perimeter=ellipsePerimeter;outlineConnect=0;aspect=fixed;outline=catching;symbol=message;" parent="lmXvjwLas6gOHOzReCN6-38" vertex="1">
          <mxGeometry x="3350" y="145.0000000000001" width="55" height="55" as="geometry" />
        </mxCell>
        <mxCell id="lmXvjwLas6gOHOzReCN6-76" value="Получает запрос о возможности&lt;div&gt;оплатить доставку посылки&lt;/div&gt;" style="text;html=1;align=center;verticalAlign=middle;resizable=0;points=[];autosize=1;strokeColor=none;fillColor=none;" parent="lmXvjwLas6gOHOzReCN6-38" vertex="1">
          <mxGeometry x="3270" y="101.94000000000005" width="200" height="40" as="geometry" />
        </mxCell>
        <mxCell id="lmXvjwLas6gOHOzReCN6-77" value="&lt;span style=&quot;font-size: 10px;&quot;&gt;Оплачивает&amp;nbsp;&lt;/span&gt;&lt;div&gt;&lt;span style=&quot;font-size: 10px;&quot;&gt;доставку посылки&lt;/span&gt;&lt;/div&gt;" style="rounded=1;whiteSpace=wrap;html=1;shadow=0;labelBackgroundColor=none;strokeWidth=1;fontFamily=Verdana;fontSize=8;align=center;" parent="lmXvjwLas6gOHOzReCN6-38" vertex="1">
          <mxGeometry x="3480" y="135.97000000000003" width="130" height="68.06" as="geometry" />
        </mxCell>
        <mxCell id="lmXvjwLas6gOHOzReCN6-78" value="" style="endArrow=classic;html=1;rounded=0;exitX=0.5;exitY=1;exitDx=0;exitDy=0;" parent="lmXvjwLas6gOHOzReCN6-38" source="lmXvjwLas6gOHOzReCN6-77" edge="1">
          <mxGeometry width="50" height="50" relative="1" as="geometry">
            <mxPoint x="3570" y="270" as="sourcePoint" />
            <mxPoint x="3545" y="430" as="targetPoint" />
          </mxGeometry>
        </mxCell>
        <mxCell id="lmXvjwLas6gOHOzReCN6-79" value="" style="endArrow=classic;html=1;rounded=0;entryX=0;entryY=0.5;entryDx=0;entryDy=0;" parent="lmXvjwLas6gOHOzReCN6-38" target="lmXvjwLas6gOHOzReCN6-77" edge="1">
          <mxGeometry width="50" height="50" relative="1" as="geometry">
            <mxPoint x="3405" y="170" as="sourcePoint" />
            <mxPoint x="3455" y="120" as="targetPoint" />
          </mxGeometry>
        </mxCell>
        <mxCell id="lmXvjwLas6gOHOzReCN6-80" value="" style="endArrow=classic;html=1;rounded=0;" parent="lmXvjwLas6gOHOzReCN6-38" edge="1">
          <mxGeometry width="50" height="50" relative="1" as="geometry">
            <mxPoint x="4145" y="145" as="sourcePoint" />
            <mxPoint x="4240" y="145" as="targetPoint" />
          </mxGeometry>
        </mxCell>
        <mxCell id="lmXvjwLas6gOHOzReCN6-81" value="" style="endArrow=classic;html=1;rounded=0;" parent="lmXvjwLas6gOHOzReCN6-38" edge="1">
          <mxGeometry width="50" height="50" relative="1" as="geometry">
            <mxPoint x="4360" y="145" as="sourcePoint" />
            <mxPoint x="4440" y="145" as="targetPoint" />
          </mxGeometry>
        </mxCell>
        <mxCell id="lmXvjwLas6gOHOzReCN6-82" value="" style="endArrow=classic;html=1;rounded=0;entryX=0.5;entryY=0;entryDx=0;entryDy=0;entryPerimeter=0;" parent="lmXvjwLas6gOHOzReCN6-38" target="lmXvjwLas6gOHOzReCN6-83" edge="1">
          <mxGeometry width="50" height="50" relative="1" as="geometry">
            <mxPoint x="4560" y="144" as="sourcePoint" />
            <mxPoint x="4640" y="144" as="targetPoint" />
            <Array as="points">
              <mxPoint x="4625" y="144" />
            </Array>
          </mxGeometry>
        </mxCell>
        <mxCell id="lmXvjwLas6gOHOzReCN6-83" value="" style="points=[[0.25,0.25,0],[0.5,0,0],[0.75,0.25,0],[1,0.5,0],[0.75,0.75,0],[0.5,1,0],[0.25,0.75,0],[0,0.5,0]];shape=mxgraph.bpmn.gateway2;html=1;verticalLabelPosition=bottom;labelBackgroundColor=#ffffff;verticalAlign=top;align=center;perimeter=rhombusPerimeter;outlineConnect=0;outline=end;symbol=general;" parent="lmXvjwLas6gOHOzReCN6-38" vertex="1">
          <mxGeometry x="4600" y="210" width="50" height="50" as="geometry" />
        </mxCell>
        <mxCell id="lmXvjwLas6gOHOzReCN6-84" value="" style="endArrow=classic;html=1;rounded=0;exitX=1;exitY=0.5;exitDx=0;exitDy=0;exitPerimeter=0;entryX=0.5;entryY=1;entryDx=0;entryDy=0;entryPerimeter=0;" parent="lmXvjwLas6gOHOzReCN6-38" target="lmXvjwLas6gOHOzReCN6-123" edge="1">
          <mxGeometry width="50" height="50" relative="1" as="geometry">
            <mxPoint x="4650" y="234.5" as="sourcePoint" />
            <mxPoint x="4710" y="234.97000000000003" as="targetPoint" />
            <Array as="points">
              <mxPoint x="4718" y="235" />
            </Array>
          </mxGeometry>
        </mxCell>
        <mxCell id="lmXvjwLas6gOHOzReCN6-85" value="" style="endArrow=classic;html=1;rounded=0;exitX=0.5;exitY=1;exitDx=0;exitDy=0;" parent="lmXvjwLas6gOHOzReCN6-38" source="lmXvjwLas6gOHOzReCN6-125" edge="1">
          <mxGeometry width="50" height="50" relative="1" as="geometry">
            <mxPoint x="5040" y="290" as="sourcePoint" />
            <mxPoint x="4875" y="140" as="targetPoint" />
          </mxGeometry>
        </mxCell>
        <mxCell id="lmXvjwLas6gOHOzReCN6-86" value="" style="points=[[0.145,0.145,0],[0.5,0,0],[0.855,0.145,0],[1,0.5,0],[0.855,0.855,0],[0.5,1,0],[0.145,0.855,0],[0,0.5,0]];shape=mxgraph.bpmn.event;html=1;verticalLabelPosition=bottom;labelBackgroundColor=#ffffff;verticalAlign=top;align=center;perimeter=ellipsePerimeter;outlineConnect=0;aspect=fixed;outline=catching;symbol=message;" parent="lmXvjwLas6gOHOzReCN6-38" vertex="1">
          <mxGeometry x="4850" y="143.06000000000006" width="55" height="55" as="geometry" />
        </mxCell>
        <mxCell id="lmXvjwLas6gOHOzReCN6-87" value="Получает видеоотчет" style="text;html=1;align=center;verticalAlign=middle;resizable=0;points=[];autosize=1;strokeColor=none;fillColor=none;" parent="lmXvjwLas6gOHOzReCN6-38" vertex="1">
          <mxGeometry x="4800" y="200" width="140" height="30" as="geometry" />
        </mxCell>
        <mxCell id="lmXvjwLas6gOHOzReCN6-88" value="&lt;span style=&quot;font-size: 10px;&quot;&gt;Публикуют&amp;nbsp;&lt;/span&gt;&lt;div&gt;&lt;span style=&quot;font-size: 10px;&quot;&gt;видеоотчет Youtube канале&lt;/span&gt;&lt;/div&gt;" style="rounded=1;whiteSpace=wrap;html=1;shadow=0;labelBackgroundColor=none;strokeWidth=1;fontFamily=Verdana;fontSize=8;align=center;" parent="lmXvjwLas6gOHOzReCN6-38" vertex="1">
          <mxGeometry x="4970" y="141.94000000000005" width="130" height="68.06" as="geometry" />
        </mxCell>
        <mxCell id="lmXvjwLas6gOHOzReCN6-91" value="" style="endArrow=classic;html=1;rounded=0;" parent="lmXvjwLas6gOHOzReCN6-38" edge="1">
          <mxGeometry width="50" height="50" relative="1" as="geometry">
            <mxPoint x="4905" y="170.05999999999995" as="sourcePoint" />
            <mxPoint x="4970" y="170" as="targetPoint" />
          </mxGeometry>
        </mxCell>
        <mxCell id="lmXvjwLas6gOHOzReCN6-114" value="" style="endArrow=classic;html=1;rounded=0;exitX=0.5;exitY=1;exitDx=0;exitDy=0;" parent="lmXvjwLas6gOHOzReCN6-38" edge="1">
          <mxGeometry width="50" height="50" relative="1" as="geometry">
            <mxPoint x="830" y="-100.64999999999998" as="sourcePoint" />
            <mxPoint x="830.5" y="60" as="targetPoint" />
          </mxGeometry>
        </mxCell>
        <mxCell id="lmXvjwLas6gOHOzReCN6-105" value="" style="points=[[0.145,0.145,0],[0.5,0,0],[0.855,0.145,0],[1,0.5,0],[0.855,0.855,0],[0.5,1,0],[0.145,0.855,0],[0,0.5,0]];shape=mxgraph.bpmn.event;html=1;verticalLabelPosition=bottom;labelBackgroundColor=#ffffff;verticalAlign=top;align=center;perimeter=ellipsePerimeter;outlineConnect=0;aspect=fixed;outline=end;symbol=terminate2;" parent="lmXvjwLas6gOHOzReCN6-38" vertex="1">
          <mxGeometry x="720" y="121.38" width="50" height="50" as="geometry" />
        </mxCell>
        <mxCell id="lmXvjwLas6gOHOzReCN6-107" value="Отказ в помощи" style="text;html=1;align=center;verticalAlign=middle;resizable=0;points=[];autosize=1;strokeColor=none;fillColor=none;" parent="lmXvjwLas6gOHOzReCN6-38" vertex="1">
          <mxGeometry x="690" y="191.12" width="110" height="30" as="geometry" />
        </mxCell>
        <mxCell id="lmXvjwLas6gOHOzReCN6-94" value="Семья нуждающаяся в помощи" style="swimlane;startSize=20;horizontal=0;html=1;whiteSpace=wrap;strokeWidth=1;fillColor=none;" parent="1" vertex="1">
          <mxGeometry x="90" y="500.47" width="5650" height="299.53" as="geometry" />
        </mxCell>
        <mxCell id="lmXvjwLas6gOHOzReCN6-95" value="" style="points=[[0.145,0.145,0],[0.5,0,0],[0.855,0.145,0],[1,0.5,0],[0.855,0.855,0],[0.5,1,0],[0.145,0.855,0],[0,0.5,0]];shape=mxgraph.bpmn.event;html=1;verticalLabelPosition=bottom;labelBackgroundColor=#ffffff;verticalAlign=top;align=center;perimeter=ellipsePerimeter;outlineConnect=0;aspect=fixed;outline=standard;symbol=general;" parent="lmXvjwLas6gOHOzReCN6-94" vertex="1">
          <mxGeometry x="70" y="98.88" width="50" height="50" as="geometry" />
        </mxCell>
        <mxCell id="lmXvjwLas6gOHOzReCN6-96" value="Возникла потребность&lt;div&gt;в помощи&lt;/div&gt;" style="text;html=1;align=center;verticalAlign=middle;resizable=0;points=[];autosize=1;strokeColor=none;fillColor=none;" parent="lmXvjwLas6gOHOzReCN6-94" vertex="1">
          <mxGeometry x="30" y="168.88" width="150" height="40" as="geometry" />
        </mxCell>
        <mxCell id="lmXvjwLas6gOHOzReCN6-97" value="" style="endArrow=classic;html=1;rounded=0;" parent="lmXvjwLas6gOHOzReCN6-94" edge="1">
          <mxGeometry width="50" height="50" relative="1" as="geometry">
            <mxPoint x="120" y="128.88" as="sourcePoint" />
            <mxPoint x="160" y="128.52999999999997" as="targetPoint" />
          </mxGeometry>
        </mxCell>
        <mxCell id="lmXvjwLas6gOHOzReCN6-98" value="&lt;span style=&quot;font-size: 10px;&quot;&gt;Найти группу &quot;Помоги лично&quot; в ВК&lt;/span&gt;" style="rounded=1;whiteSpace=wrap;html=1;shadow=0;labelBackgroundColor=none;strokeWidth=1;fontFamily=Verdana;fontSize=8;align=center;" parent="lmXvjwLas6gOHOzReCN6-94" vertex="1">
          <mxGeometry x="160" y="95" width="90" height="68.88" as="geometry" />
        </mxCell>
        <mxCell id="lmXvjwLas6gOHOzReCN6-99" value="&lt;span style=&quot;font-size: 10px;&quot;&gt;Написать сообщение администратору&amp;nbsp;&lt;/span&gt;" style="rounded=1;whiteSpace=wrap;html=1;shadow=0;labelBackgroundColor=none;strokeWidth=1;fontFamily=Verdana;fontSize=8;align=center;" parent="lmXvjwLas6gOHOzReCN6-94" vertex="1">
          <mxGeometry x="300" y="95" width="90" height="68.88" as="geometry" />
        </mxCell>
        <mxCell id="lmXvjwLas6gOHOzReCN6-100" value="" style="endArrow=classic;html=1;rounded=0;" parent="lmXvjwLas6gOHOzReCN6-94" edge="1">
          <mxGeometry width="50" height="50" relative="1" as="geometry">
            <mxPoint x="250" y="127.05999999999999" as="sourcePoint" />
            <mxPoint x="300" y="127.52999999999997" as="targetPoint" />
          </mxGeometry>
        </mxCell>
        <mxCell id="lmXvjwLas6gOHOzReCN6-101" value="" style="points=[[0.145,0.145,0],[0.5,0,0],[0.855,0.145,0],[1,0.5,0],[0.855,0.855,0],[0.5,1,0],[0.145,0.855,0],[0,0.5,0]];shape=mxgraph.bpmn.event;html=1;verticalLabelPosition=bottom;labelBackgroundColor=#ffffff;verticalAlign=top;align=center;perimeter=ellipsePerimeter;outlineConnect=0;aspect=fixed;outline=catching;symbol=message;" parent="lmXvjwLas6gOHOzReCN6-94" vertex="1">
          <mxGeometry x="460" y="93.88" width="55" height="55" as="geometry" />
        </mxCell>
        <mxCell id="lmXvjwLas6gOHOzReCN6-102" value="Сообщение о&amp;nbsp;&lt;div&gt;необходимости&amp;nbsp;&lt;div&gt;документального&amp;nbsp;&lt;/div&gt;&lt;div&gt;подтверждения&lt;/div&gt;&lt;/div&gt;" style="text;html=1;align=center;verticalAlign=middle;resizable=0;points=[];autosize=1;strokeColor=none;fillColor=none;" parent="lmXvjwLas6gOHOzReCN6-94" vertex="1">
          <mxGeometry x="432.5" y="18.880000000000003" width="120" height="70" as="geometry" />
        </mxCell>
        <mxCell id="lmXvjwLas6gOHOzReCN6-103" value="Отправить&amp;nbsp;&lt;div&gt;документы?&lt;/div&gt;" style="text;html=1;align=center;verticalAlign=middle;resizable=0;points=[];autosize=1;strokeColor=none;fillColor=none;" parent="lmXvjwLas6gOHOzReCN6-94" vertex="1">
          <mxGeometry x="590" y="144.44" width="90" height="40" as="geometry" />
        </mxCell>
        <mxCell id="lmXvjwLas6gOHOzReCN6-104" value="Да" style="text;html=1;align=center;verticalAlign=middle;resizable=0;points=[];autosize=1;strokeColor=none;fillColor=none;" parent="lmXvjwLas6gOHOzReCN6-94" vertex="1">
          <mxGeometry x="655" y="178.88" width="40" height="30" as="geometry" />
        </mxCell>
        <mxCell id="lmXvjwLas6gOHOzReCN6-106" value="Нет" style="text;html=1;align=center;verticalAlign=middle;resizable=0;points=[];autosize=1;strokeColor=none;fillColor=none;" parent="lmXvjwLas6gOHOzReCN6-94" vertex="1">
          <mxGeometry x="655" y="38.879999999999995" width="40" height="30" as="geometry" />
        </mxCell>
        <mxCell id="lmXvjwLas6gOHOzReCN6-108" value="" style="points=[[0.25,0.25,0],[0.5,0,0],[0.75,0.25,0],[1,0.5,0],[0.75,0.75,0],[0.5,1,0],[0.25,0.75,0],[0,0.5,0]];shape=mxgraph.bpmn.gateway2;html=1;verticalLabelPosition=bottom;labelBackgroundColor=#ffffff;verticalAlign=top;align=center;perimeter=rhombusPerimeter;outlineConnect=0;outline=none;symbol=none;gwType=exclusive;" parent="lmXvjwLas6gOHOzReCN6-94" vertex="1">
          <mxGeometry x="650" y="95" width="50" height="50" as="geometry" />
        </mxCell>
        <mxCell id="lmXvjwLas6gOHOzReCN6-109" value="&lt;span style=&quot;font-size: 10px;&quot;&gt;Направляет&amp;nbsp;&lt;/span&gt;&lt;div&gt;&lt;span style=&quot;font-size: 10px;&quot;&gt;документы&lt;/span&gt;&lt;/div&gt;" style="rounded=1;whiteSpace=wrap;html=1;shadow=0;labelBackgroundColor=none;strokeWidth=1;fontFamily=Verdana;fontSize=8;align=center;" parent="lmXvjwLas6gOHOzReCN6-94" vertex="1">
          <mxGeometry x="790" y="128.06" width="100" height="68.88" as="geometry" />
        </mxCell>
        <mxCell id="lmXvjwLas6gOHOzReCN6-110" value="" style="points=[[0.145,0.145,0],[0.5,0,0],[0.855,0.145,0],[1,0.5,0],[0.855,0.855,0],[0.5,1,0],[0.145,0.855,0],[0,0.5,0]];shape=mxgraph.bpmn.event;html=1;verticalLabelPosition=bottom;labelBackgroundColor=#ffffff;verticalAlign=top;align=center;perimeter=ellipsePerimeter;outlineConnect=0;aspect=fixed;outline=catching;symbol=message;" parent="lmXvjwLas6gOHOzReCN6-94" vertex="1">
          <mxGeometry x="1297.5" y="101.94" width="55" height="55" as="geometry" />
        </mxCell>
        <mxCell id="lmXvjwLas6gOHOzReCN6-111" value="Получает сообщение&amp;nbsp;&lt;div&gt;о готовности разместить&lt;/div&gt;&lt;div&gt;&amp;nbsp;информацию о помощи в группе&amp;nbsp;&lt;/div&gt;&lt;div&gt;и предоставить необходимую&amp;nbsp;&lt;/div&gt;&lt;div&gt;информацию для этого&amp;nbsp;&lt;/div&gt;" style="text;html=1;align=center;verticalAlign=middle;resizable=0;points=[];autosize=1;strokeColor=none;fillColor=none;" parent="lmXvjwLas6gOHOzReCN6-94" vertex="1">
          <mxGeometry x="1220" width="210" height="90" as="geometry" />
        </mxCell>
        <mxCell id="lmXvjwLas6gOHOzReCN6-112" value="&lt;span style=&quot;font-size: 10px;&quot;&gt;Направляет информацию&lt;/span&gt;" style="rounded=1;whiteSpace=wrap;html=1;shadow=0;labelBackgroundColor=none;strokeWidth=1;fontFamily=Verdana;fontSize=8;align=center;" parent="lmXvjwLas6gOHOzReCN6-94" vertex="1">
          <mxGeometry x="1430" y="100.82" width="130" height="68.06" as="geometry" />
        </mxCell>
        <mxCell id="lmXvjwLas6gOHOzReCN6-113" value="" style="endArrow=classic;html=1;rounded=0;entryX=0;entryY=0.5;entryDx=0;entryDy=0;entryPerimeter=0;" parent="lmXvjwLas6gOHOzReCN6-94" target="lmXvjwLas6gOHOzReCN6-108" edge="1">
          <mxGeometry width="50" height="50" relative="1" as="geometry">
            <mxPoint x="515" y="120.88" as="sourcePoint" />
            <mxPoint x="565" y="121.35000000000002" as="targetPoint" />
          </mxGeometry>
        </mxCell>
        <mxCell id="lmXvjwLas6gOHOzReCN6-115" value="" style="endArrow=classic;html=1;rounded=0;" parent="lmXvjwLas6gOHOzReCN6-94" edge="1">
          <mxGeometry width="50" height="50" relative="1" as="geometry">
            <mxPoint x="1352.5" y="132.40999999999997" as="sourcePoint" />
            <mxPoint x="1430" y="132.52999999999997" as="targetPoint" />
          </mxGeometry>
        </mxCell>
        <mxCell id="lmXvjwLas6gOHOzReCN6-116" value="" style="endArrow=classic;html=1;rounded=0;exitX=0.5;exitY=1;exitDx=0;exitDy=0;entryX=0.5;entryY=0;entryDx=0;entryDy=0;entryPerimeter=0;" parent="lmXvjwLas6gOHOzReCN6-94" target="lmXvjwLas6gOHOzReCN6-50" edge="1">
          <mxGeometry width="50" height="50" relative="1" as="geometry">
            <mxPoint x="1490" y="166.94000000000005" as="sourcePoint" />
            <mxPoint x="1490.5" y="327.5899999999999" as="targetPoint" />
          </mxGeometry>
        </mxCell>
        <mxCell id="lmXvjwLas6gOHOzReCN6-117" value="" style="endArrow=classic;html=1;rounded=0;exitX=0.5;exitY=0;exitDx=0;exitDy=0;exitPerimeter=0;" parent="lmXvjwLas6gOHOzReCN6-94" source="lmXvjwLas6gOHOzReCN6-108" edge="1">
          <mxGeometry width="50" height="50" relative="1" as="geometry">
            <mxPoint x="710" y="73.73000000000002" as="sourcePoint" />
            <mxPoint x="740" y="419.53" as="targetPoint" />
            <Array as="points">
              <mxPoint x="675" y="73.52999999999997" />
              <mxPoint x="740" y="73.52999999999997" />
            </Array>
          </mxGeometry>
        </mxCell>
        <mxCell id="lmXvjwLas6gOHOzReCN6-118" value="" style="endArrow=classic;html=1;rounded=0;" parent="lmXvjwLas6gOHOzReCN6-94" edge="1">
          <mxGeometry width="50" height="50" relative="1" as="geometry">
            <mxPoint x="675" y="144.99999999999997" as="sourcePoint" />
            <mxPoint x="790" y="175.52999999999997" as="targetPoint" />
            <Array as="points">
              <mxPoint x="675" y="175.14999999999995" />
            </Array>
          </mxGeometry>
        </mxCell>
        <mxCell id="lmXvjwLas6gOHOzReCN6-119" value="" style="points=[[0.145,0.145,0],[0.5,0,0],[0.855,0.145,0],[1,0.5,0],[0.855,0.855,0],[0.5,1,0],[0.145,0.855,0],[0,0.5,0]];shape=mxgraph.bpmn.event;html=1;verticalLabelPosition=bottom;labelBackgroundColor=#ffffff;verticalAlign=top;align=center;perimeter=ellipsePerimeter;outlineConnect=0;aspect=fixed;outline=catching;symbol=message;" parent="lmXvjwLas6gOHOzReCN6-94" vertex="1">
          <mxGeometry x="2770" y="145.18" width="55" height="55" as="geometry" />
        </mxCell>
        <mxCell id="lmXvjwLas6gOHOzReCN6-120" value="Запрос на предоставление&lt;div&gt;контактов благотворителю&lt;/div&gt;" style="text;html=1;align=center;verticalAlign=middle;resizable=0;points=[];autosize=1;strokeColor=none;fillColor=none;" parent="lmXvjwLas6gOHOzReCN6-94" vertex="1">
          <mxGeometry x="2712.5" y="100" width="170" height="40" as="geometry" />
        </mxCell>
        <mxCell id="lmXvjwLas6gOHOzReCN6-121" value="&lt;span style=&quot;font-size: 10px;&quot;&gt;Направляет&amp;nbsp;&lt;/span&gt;&lt;div&gt;&lt;span style=&quot;font-size: 10px;&quot;&gt;контакты администратору&amp;nbsp;&lt;/span&gt;&lt;/div&gt;" style="rounded=1;whiteSpace=wrap;html=1;shadow=0;labelBackgroundColor=none;strokeWidth=1;fontFamily=Verdana;fontSize=8;align=center;" parent="lmXvjwLas6gOHOzReCN6-94" vertex="1">
          <mxGeometry x="2920" y="132.12000000000003" width="130" height="68.06" as="geometry" />
        </mxCell>
        <mxCell id="lmXvjwLas6gOHOzReCN6-122" value="" style="endArrow=classic;html=1;rounded=0;entryX=0;entryY=0.5;entryDx=0;entryDy=0;entryPerimeter=0;" parent="lmXvjwLas6gOHOzReCN6-94" edge="1">
          <mxGeometry width="50" height="50" relative="1" as="geometry">
            <mxPoint x="2825" y="169.52999999999997" as="sourcePoint" />
            <mxPoint x="2920" y="169.05999999999995" as="targetPoint" />
          </mxGeometry>
        </mxCell>
        <mxCell id="lmXvjwLas6gOHOzReCN6-123" value="" style="points=[[0.145,0.145,0],[0.5,0,0],[0.855,0.145,0],[1,0.5,0],[0.855,0.855,0],[0.5,1,0],[0.145,0.855,0],[0,0.5,0]];shape=mxgraph.bpmn.event;html=1;verticalLabelPosition=bottom;labelBackgroundColor=#ffffff;verticalAlign=top;align=center;perimeter=ellipsePerimeter;outlineConnect=0;aspect=fixed;outline=catching;symbol=message;" parent="lmXvjwLas6gOHOzReCN6-94" vertex="1">
          <mxGeometry x="4690" y="138.65" width="55" height="55" as="geometry" />
        </mxCell>
        <mxCell id="lmXvjwLas6gOHOzReCN6-124" value="Получает посылку" style="text;html=1;align=center;verticalAlign=middle;resizable=0;points=[];autosize=1;strokeColor=none;fillColor=none;" parent="lmXvjwLas6gOHOzReCN6-94" vertex="1">
          <mxGeometry x="4652.5" y="106.37999999999997" width="130" height="30" as="geometry" />
        </mxCell>
        <mxCell id="lmXvjwLas6gOHOzReCN6-125" value="&lt;span style=&quot;font-size: 10px;&quot;&gt;Отправляет видеоотчет&lt;/span&gt;&lt;div&gt;&lt;span style=&quot;font-size: 10px;&quot;&gt;с распаковкой&lt;/span&gt;&lt;/div&gt;" style="rounded=1;whiteSpace=wrap;html=1;shadow=0;labelBackgroundColor=none;strokeWidth=1;fontFamily=Verdana;fontSize=8;align=center;" parent="lmXvjwLas6gOHOzReCN6-94" vertex="1">
          <mxGeometry x="4810" y="128.88" width="130" height="68.06" as="geometry" />
        </mxCell>
        <mxCell id="lmXvjwLas6gOHOzReCN6-126" value="" style="endArrow=classic;html=1;rounded=0;" parent="lmXvjwLas6gOHOzReCN6-94" edge="1">
          <mxGeometry width="50" height="50" relative="1" as="geometry">
            <mxPoint x="4745" y="162.40999999999997" as="sourcePoint" />
            <mxPoint x="4810" y="162.52999999999997" as="targetPoint" />
          </mxGeometry>
        </mxCell>
        <mxCell id="lmXvjwLas6gOHOzReCN6-127" value="" style="points=[[0.145,0.145,0],[0.5,0,0],[0.855,0.145,0],[1,0.5,0],[0.855,0.855,0],[0.5,1,0],[0.145,0.855,0],[0,0.5,0]];shape=mxgraph.bpmn.event;html=1;verticalLabelPosition=bottom;labelBackgroundColor=#ffffff;verticalAlign=top;align=center;perimeter=ellipsePerimeter;outlineConnect=0;aspect=fixed;outline=end;symbol=terminate2;" parent="lmXvjwLas6gOHOzReCN6-94" vertex="1">
          <mxGeometry x="5020" y="118.87999999999991" width="50" height="50" as="geometry" />
        </mxCell>
        <mxCell id="lmXvjwLas6gOHOzReCN6-128" value="" style="endArrow=classic;html=1;rounded=0;exitX=0.423;exitY=-0.058;exitDx=0;exitDy=0;exitPerimeter=0;" parent="lmXvjwLas6gOHOzReCN6-94" edge="1">
          <mxGeometry width="50" height="50" relative="1" as="geometry">
            <mxPoint x="5044.99" y="441.55251999999973" as="sourcePoint" />
            <mxPoint x="5040" y="169.52999999999997" as="targetPoint" />
          </mxGeometry>
        </mxCell>
        <mxCell id="lmXvjwLas6gOHOzReCN6-129" value="Помощь оказана" style="text;html=1;align=center;verticalAlign=middle;resizable=0;points=[];autosize=1;strokeColor=none;fillColor=none;" parent="lmXvjwLas6gOHOzReCN6-94" vertex="1">
          <mxGeometry x="4990" y="93.88" width="120" height="30" as="geometry" />
        </mxCell>
        <mxCell id="lmXvjwLas6gOHOzReCN6-130" value="" style="endArrow=classic;html=1;rounded=0;entryX=0.5;entryY=0;entryDx=0;entryDy=0;entryPerimeter=0;exitX=0.5;exitY=1;exitDx=0;exitDy=0;" parent="1" source="lmXvjwLas6gOHOzReCN6-99" target="lmXvjwLas6gOHOzReCN6-39" edge="1">
          <mxGeometry width="50" height="50" relative="1" as="geometry">
            <mxPoint x="558" y="670" as="sourcePoint" />
            <mxPoint x="580" y="835.03" as="targetPoint" />
          </mxGeometry>
        </mxCell>
        <mxCell id="lmXvjwLas6gOHOzReCN6-131" value="" style="endArrow=classic;html=1;rounded=0;entryX=0.5;entryY=1;entryDx=0;entryDy=0;entryPerimeter=0;exitX=0.41;exitY=-0.001;exitDx=0;exitDy=0;exitPerimeter=0;" parent="1" source="lmXvjwLas6gOHOzReCN6-41" target="lmXvjwLas6gOHOzReCN6-101" edge="1">
          <mxGeometry width="50" height="50" relative="1" as="geometry">
            <mxPoint x="511" y="687.35" as="sourcePoint" />
            <mxPoint x="588.5" y="689.35" as="targetPoint" />
          </mxGeometry>
        </mxCell>
        <mxCell id="lmXvjwLas6gOHOzReCN6-132" value="" style="endArrow=classic;html=1;rounded=0;entryX=0.5;entryY=1;entryDx=0;entryDy=0;entryPerimeter=0;exitX=1;exitY=0.5;exitDx=0;exitDy=0;" parent="1" source="lmXvjwLas6gOHOzReCN6-11" target="lmXvjwLas6gOHOzReCN6-61" edge="1">
          <mxGeometry width="50" height="50" relative="1" as="geometry">
            <mxPoint x="2779.9999999999995" y="1284.0337399999999" as="sourcePoint" />
            <mxPoint x="2780.52" y="1090.24" as="targetPoint" />
            <Array as="points">
              <mxPoint x="2748" y="1293" />
            </Array>
          </mxGeometry>
        </mxCell>
        <mxCell id="lmXvjwLas6gOHOzReCN6-133" value="" style="endArrow=classic;html=1;rounded=0;entryX=0.5;entryY=0;entryDx=0;entryDy=0;entryPerimeter=0;" parent="1" target="lmXvjwLas6gOHOzReCN6-64" edge="1">
          <mxGeometry width="50" height="50" relative="1" as="geometry">
            <mxPoint x="3078" y="701" as="sourcePoint" />
            <mxPoint x="3155" y="940" as="targetPoint" />
            <Array as="points" />
          </mxGeometry>
        </mxCell>
        <mxCell id="lmXvjwLas6gOHOzReCN6-134" value="" style="endArrow=classic;html=1;rounded=0;exitX=0.5;exitY=0;exitDx=0;exitDy=0;exitPerimeter=0;" parent="1" source="lmXvjwLas6gOHOzReCN6-29" edge="1">
          <mxGeometry width="50" height="50" relative="1" as="geometry">
            <mxPoint x="3490" y="1160" as="sourcePoint" />
            <mxPoint x="3400" y="1240" as="targetPoint" />
            <Array as="points">
              <mxPoint x="3335" y="1240" />
            </Array>
          </mxGeometry>
        </mxCell>
        <mxCell id="lmXvjwLas6gOHOzReCN6-135" value="" style="endArrow=classic;html=1;rounded=0;exitX=1;exitY=0.5;exitDx=0;exitDy=0;entryX=0.5;entryY=1;entryDx=0;entryDy=0;entryPerimeter=0;" parent="1" source="lmXvjwLas6gOHOzReCN6-10" target="lmXvjwLas6gOHOzReCN6-70" edge="1">
          <mxGeometry width="50" height="50" relative="1" as="geometry">
            <mxPoint x="2910" y="1241.03" as="sourcePoint" />
            <mxPoint x="2960" y="1191.03" as="targetPoint" />
            <Array as="points">
              <mxPoint x="4208" y="1210" />
            </Array>
          </mxGeometry>
        </mxCell>
        <mxCell id="lmXvjwLas6gOHOzReCN6-136" value="" style="endArrow=classic;html=1;rounded=0;entryX=0.5;entryY=1;entryDx=0;entryDy=0;entryPerimeter=0;exitX=0.431;exitY=0.03;exitDx=0;exitDy=0;exitPerimeter=0;" parent="1" source="lmXvjwLas6gOHOzReCN6-28" target="lmXvjwLas6gOHOzReCN6-83" edge="1">
          <mxGeometry width="50" height="50" relative="1" as="geometry">
            <mxPoint x="4715" y="1210" as="sourcePoint" />
            <mxPoint x="4720.25" y="1084.98" as="targetPoint" />
          </mxGeometry>
        </mxCell>
        <mxCell id="lmXvjwLas6gOHOzReCN6-3" value="&lt;b&gt;Процесс оказания помощи многодетным семьям через сайт&lt;/b&gt;" style="text;html=1;align=center;verticalAlign=middle;resizable=0;points=[];autosize=1;strokeColor=none;fillColor=none;rotation=0;" parent="1" vertex="1">
          <mxGeometry x="510" y="450" width="380" height="30" as="geometry" />
        </mxCell>
      </root>
    </mxGraphModel>
  </diagram>
  <diagram id="Tjh60pQxE49qlg4enLGA" name="TO BE">
    <mxGraphModel dx="1649" dy="1436" grid="1" gridSize="10" guides="1" tooltips="1" connect="1" arrows="1" fold="1" page="1" pageScale="1" pageWidth="827" pageHeight="1169" math="0" shadow="0">
      <root>
        <mxCell id="0" />
        <mxCell id="1" parent="0" />
        <mxCell id="cHXaKANqje5P_EdxZyNm-1" value="Благотворитель" style="swimlane;startSize=20;horizontal=0;html=1;whiteSpace=wrap;strokeWidth=1;fillColor=none;" parent="1" vertex="1">
          <mxGeometry x="90" y="1140" width="6210" height="733.9699999999998" as="geometry" />
        </mxCell>
        <mxCell id="cHXaKANqje5P_EdxZyNm-23" value="Получает контакты" style="text;html=1;align=center;verticalAlign=middle;resizable=0;points=[];autosize=1;strokeColor=none;fillColor=none;" parent="cHXaKANqje5P_EdxZyNm-1" vertex="1">
          <mxGeometry x="4030" y="353.91" width="130" height="30" as="geometry" />
        </mxCell>
        <mxCell id="cHXaKANqje5P_EdxZyNm-24" value="&lt;span style=&quot;font-size: 10px;&quot;&gt;Направляет деньги&amp;nbsp;&lt;/span&gt;&lt;span style=&quot;font-size: 10px; background-color: transparent; color: light-dark(rgb(0, 0, 0), rgb(255, 255, 255));&quot;&gt;на счет фонда&lt;/span&gt;" style="rounded=1;whiteSpace=wrap;html=1;shadow=0;labelBackgroundColor=none;strokeWidth=1;fontFamily=Verdana;fontSize=8;align=center;" parent="cHXaKANqje5P_EdxZyNm-1" vertex="1">
          <mxGeometry x="4170" y="75.05999999999992" width="120" height="50.47" as="geometry" />
        </mxCell>
        <mxCell id="cHXaKANqje5P_EdxZyNm-26" value="" style="endArrow=classic;html=1;rounded=0;exitX=1;exitY=0.5;exitDx=0;exitDy=0;exitPerimeter=0;entryX=0;entryY=0.5;entryDx=0;entryDy=0;" parent="cHXaKANqje5P_EdxZyNm-1" source="c8lWVxjifEEdm04KX2j0-24" target="cHXaKANqje5P_EdxZyNm-24" edge="1">
          <mxGeometry width="50" height="50" relative="1" as="geometry">
            <mxPoint x="4150" y="123.9699999999998" as="sourcePoint" />
            <mxPoint x="4200" y="69.88" as="targetPoint" />
          </mxGeometry>
        </mxCell>
        <mxCell id="cHXaKANqje5P_EdxZyNm-38" value="" style="points=[[0.25,0.25,0],[0.5,0,0],[0.75,0.25,0],[1,0.5,0],[0.75,0.75,0],[0.5,1,0],[0.25,0.75,0],[0,0.5,0]];shape=mxgraph.bpmn.gateway2;html=1;verticalLabelPosition=bottom;labelBackgroundColor=#ffffff;verticalAlign=top;align=center;perimeter=rhombusPerimeter;outlineConnect=0;outline=end;symbol=general;" parent="cHXaKANqje5P_EdxZyNm-1" vertex="1">
          <mxGeometry x="4872" y="179.99999999999997" width="50" height="50" as="geometry" />
        </mxCell>
        <mxCell id="c8lWVxjifEEdm04KX2j0-11" value="" style="points=[[0.25,0.25,0],[0.5,0,0],[0.75,0.25,0],[1,0.5,0],[0.75,0.75,0],[0.5,1,0],[0.25,0.75,0],[0,0.5,0]];shape=mxgraph.bpmn.gateway2;html=1;verticalLabelPosition=bottom;labelBackgroundColor=#ffffff;verticalAlign=top;align=center;perimeter=rhombusPerimeter;outlineConnect=0;outline=end;symbol=general;" parent="cHXaKANqje5P_EdxZyNm-1" vertex="1">
          <mxGeometry x="2780" y="267.3800000000001" width="50" height="50" as="geometry" />
        </mxCell>
        <mxCell id="c8lWVxjifEEdm04KX2j0-12" value="" style="endArrow=classic;html=1;rounded=0;exitX=0.5;exitY=0;exitDx=0;exitDy=0;exitPerimeter=0;entryX=0;entryY=0.5;entryDx=0;entryDy=0;entryPerimeter=0;" parent="cHXaKANqje5P_EdxZyNm-1" source="c8lWVxjifEEdm04KX2j0-11" target="c8lWVxjifEEdm04KX2j0-17" edge="1">
          <mxGeometry width="50" height="50" relative="1" as="geometry">
            <mxPoint x="2970" y="102.02999999999992" as="sourcePoint" />
            <mxPoint x="2870" y="103.05999999999989" as="targetPoint" />
            <Array as="points">
              <mxPoint x="2805" y="103.05999999999989" />
            </Array>
          </mxGeometry>
        </mxCell>
        <mxCell id="c8lWVxjifEEdm04KX2j0-13" value="Деньгами в фонд" style="text;html=1;align=center;verticalAlign=middle;resizable=0;points=[];autosize=1;strokeColor=none;fillColor=none;" parent="cHXaKANqje5P_EdxZyNm-1" vertex="1">
          <mxGeometry x="2770" y="65.91000000000014" width="120" height="30" as="geometry" />
        </mxCell>
        <mxCell id="c8lWVxjifEEdm04KX2j0-14" value="Вещами адресно" style="text;html=1;align=center;verticalAlign=middle;resizable=0;points=[];autosize=1;strokeColor=none;fillColor=none;" parent="cHXaKANqje5P_EdxZyNm-1" vertex="1">
          <mxGeometry x="2755" y="441.0000000000001" width="120" height="30" as="geometry" />
        </mxCell>
        <mxCell id="c8lWVxjifEEdm04KX2j0-15" value="" style="endArrow=classic;html=1;rounded=0;exitX=0.5;exitY=1;exitDx=0;exitDy=0;exitPerimeter=0;entryX=0;entryY=0.5;entryDx=0;entryDy=0;entryPerimeter=0;" parent="cHXaKANqje5P_EdxZyNm-1" source="c8lWVxjifEEdm04KX2j0-11" target="c8lWVxjifEEdm04KX2j0-25" edge="1">
          <mxGeometry width="50" height="50" relative="1" as="geometry">
            <mxPoint x="2810" y="234.03000000000014" as="sourcePoint" />
            <mxPoint x="2920" y="293.0599999999999" as="targetPoint" />
            <Array as="points">
              <mxPoint x="2805" y="430" />
            </Array>
          </mxGeometry>
        </mxCell>
        <mxCell id="c8lWVxjifEEdm04KX2j0-16" value="&lt;span style=&quot;font-size: 10px;&quot;&gt;Запросить адрес доставки&lt;/span&gt;" style="rounded=1;whiteSpace=wrap;html=1;shadow=0;labelBackgroundColor=none;strokeWidth=1;fontFamily=Verdana;fontSize=8;align=center;" parent="cHXaKANqje5P_EdxZyNm-1" vertex="1">
          <mxGeometry x="3070" y="480.9999999999999" width="110" height="62.09" as="geometry" />
        </mxCell>
        <mxCell id="c8lWVxjifEEdm04KX2j0-17" value="" style="points=[[0.25,0.25,0],[0.5,0,0],[0.75,0.25,0],[1,0.5,0],[0.75,0.75,0],[0.5,1,0],[0.25,0.75,0],[0,0.5,0]];shape=mxgraph.bpmn.gateway2;html=1;verticalLabelPosition=bottom;labelBackgroundColor=#ffffff;verticalAlign=top;align=center;perimeter=rhombusPerimeter;outlineConnect=0;outline=end;symbol=general;" parent="cHXaKANqje5P_EdxZyNm-1" vertex="1">
          <mxGeometry x="2890" y="78.05999999999989" width="50" height="50" as="geometry" />
        </mxCell>
        <mxCell id="c8lWVxjifEEdm04KX2j0-18" value="&lt;span style=&quot;font-size: 10px;&quot;&gt;Сканирует QR код&lt;/span&gt;" style="rounded=1;whiteSpace=wrap;html=1;shadow=0;labelBackgroundColor=none;strokeWidth=1;fontFamily=Verdana;fontSize=8;align=center;" parent="cHXaKANqje5P_EdxZyNm-1" vertex="1">
          <mxGeometry x="2980" y="9.999999999999947" width="110" height="53.06" as="geometry" />
        </mxCell>
        <mxCell id="c8lWVxjifEEdm04KX2j0-19" value="&lt;span style=&quot;font-size: 10px;&quot;&gt;Заполняет онлайн форму на сайте&lt;/span&gt;" style="rounded=1;whiteSpace=wrap;html=1;shadow=0;labelBackgroundColor=none;strokeWidth=1;fontFamily=Verdana;fontSize=8;align=center;" parent="cHXaKANqje5P_EdxZyNm-1" vertex="1">
          <mxGeometry x="2980" y="75.05999999999989" width="110" height="53.06" as="geometry" />
        </mxCell>
        <mxCell id="c8lWVxjifEEdm04KX2j0-20" value="&lt;span style=&quot;font-size: 10px;&quot;&gt;Переводит по банковским реквизитам&amp;nbsp;&lt;/span&gt;" style="rounded=1;whiteSpace=wrap;html=1;shadow=0;labelBackgroundColor=none;strokeWidth=1;fontFamily=Verdana;fontSize=8;align=center;" parent="cHXaKANqje5P_EdxZyNm-1" vertex="1">
          <mxGeometry x="2980" y="137.0900000000001" width="110" height="53.06" as="geometry" />
        </mxCell>
        <mxCell id="c8lWVxjifEEdm04KX2j0-21" value="" style="endArrow=classic;html=1;rounded=0;exitX=0.5;exitY=0;exitDx=0;exitDy=0;exitPerimeter=0;entryX=0;entryY=0.25;entryDx=0;entryDy=0;" parent="cHXaKANqje5P_EdxZyNm-1" source="c8lWVxjifEEdm04KX2j0-17" target="c8lWVxjifEEdm04KX2j0-18" edge="1">
          <mxGeometry width="50" height="50" relative="1" as="geometry">
            <mxPoint x="2912.5" y="72.03000000000014" as="sourcePoint" />
            <mxPoint x="2997.5" y="1.0300000000001468" as="targetPoint" />
            <Array as="points">
              <mxPoint x="2915" y="23.05999999999989" />
            </Array>
          </mxGeometry>
        </mxCell>
        <mxCell id="c8lWVxjifEEdm04KX2j0-22" value="" style="endArrow=classic;html=1;rounded=0;exitX=1;exitY=0.5;exitDx=0;exitDy=0;exitPerimeter=0;" parent="cHXaKANqje5P_EdxZyNm-1" edge="1">
          <mxGeometry width="50" height="50" relative="1" as="geometry">
            <mxPoint x="2940" y="102.55999999999989" as="sourcePoint" />
            <mxPoint x="2980" y="102.99999999999994" as="targetPoint" />
          </mxGeometry>
        </mxCell>
        <mxCell id="c8lWVxjifEEdm04KX2j0-23" value="" style="endArrow=classic;html=1;rounded=0;" parent="cHXaKANqje5P_EdxZyNm-1" source="c8lWVxjifEEdm04KX2j0-17" edge="1">
          <mxGeometry width="50" height="50" relative="1" as="geometry">
            <mxPoint x="2915" y="132.9700000000002" as="sourcePoint" />
            <mxPoint x="2980" y="161.0599999999999" as="targetPoint" />
            <Array as="points">
              <mxPoint x="2915" y="160.9700000000002" />
            </Array>
          </mxGeometry>
        </mxCell>
        <mxCell id="c8lWVxjifEEdm04KX2j0-24" value="" style="points=[[0.25,0.25,0],[0.5,0,0],[0.75,0.25,0],[1,0.5,0],[0.75,0.75,0],[0.5,1,0],[0.25,0.75,0],[0,0.5,0]];shape=mxgraph.bpmn.gateway2;html=1;verticalLabelPosition=bottom;labelBackgroundColor=#ffffff;verticalAlign=top;align=center;perimeter=rhombusPerimeter;outlineConnect=0;outline=end;symbol=general;" parent="cHXaKANqje5P_EdxZyNm-1" vertex="1">
          <mxGeometry x="3130" y="78.11999999999983" width="50" height="50" as="geometry" />
        </mxCell>
        <mxCell id="c8lWVxjifEEdm04KX2j0-25" value="" style="points=[[0.25,0.25,0],[0.5,0,0],[0.75,0.25,0],[1,0.5,0],[0.75,0.75,0],[0.5,1,0],[0.25,0.75,0],[0,0.5,0]];shape=mxgraph.bpmn.gateway2;html=1;verticalLabelPosition=bottom;labelBackgroundColor=#ffffff;verticalAlign=top;align=center;perimeter=rhombusPerimeter;outlineConnect=0;outline=none;symbol=none;gwType=exclusive;" parent="cHXaKANqje5P_EdxZyNm-1" vertex="1">
          <mxGeometry x="2940" y="406.97000000000014" width="50" height="50" as="geometry" />
        </mxCell>
        <mxCell id="c8lWVxjifEEdm04KX2j0-26" value="Есть деньги на&lt;div&gt;отправку?&lt;/div&gt;" style="text;html=1;align=center;verticalAlign=middle;resizable=0;points=[];autosize=1;strokeColor=none;fillColor=none;" parent="cHXaKANqje5P_EdxZyNm-1" vertex="1">
          <mxGeometry x="2950" y="519.9999999999999" width="110" height="40" as="geometry" />
        </mxCell>
        <mxCell id="c8lWVxjifEEdm04KX2j0-27" value="Да" style="text;html=1;align=center;verticalAlign=middle;resizable=0;points=[];autosize=1;strokeColor=none;fillColor=none;" parent="cHXaKANqje5P_EdxZyNm-1" vertex="1">
          <mxGeometry x="2920" y="470.9999999999999" width="40" height="30" as="geometry" />
        </mxCell>
        <mxCell id="c8lWVxjifEEdm04KX2j0-28" value="Нет" style="text;html=1;align=center;verticalAlign=middle;resizable=0;points=[];autosize=1;strokeColor=none;fillColor=none;" parent="cHXaKANqje5P_EdxZyNm-1" vertex="1">
          <mxGeometry x="2920" y="390.9999999999999" width="40" height="30" as="geometry" />
        </mxCell>
        <mxCell id="c8lWVxjifEEdm04KX2j0-29" value="" style="endArrow=classic;html=1;rounded=0;exitX=0.5;exitY=1;exitDx=0;exitDy=0;exitPerimeter=0;entryX=0;entryY=0.5;entryDx=0;entryDy=0;" parent="cHXaKANqje5P_EdxZyNm-1" source="c8lWVxjifEEdm04KX2j0-25" target="c8lWVxjifEEdm04KX2j0-16" edge="1">
          <mxGeometry width="50" height="50" relative="1" as="geometry">
            <mxPoint x="3020" y="506.97000000000014" as="sourcePoint" />
            <mxPoint x="3070" y="456.97000000000014" as="targetPoint" />
            <Array as="points">
              <mxPoint x="2965" y="510.9999999999999" />
            </Array>
          </mxGeometry>
        </mxCell>
        <mxCell id="c8lWVxjifEEdm04KX2j0-30" value="" style="endArrow=classic;html=1;rounded=0;exitX=0.5;exitY=0;exitDx=0;exitDy=0;exitPerimeter=0;" parent="cHXaKANqje5P_EdxZyNm-1" source="c8lWVxjifEEdm04KX2j0-25" edge="1">
          <mxGeometry width="50" height="50" relative="1" as="geometry">
            <mxPoint x="2970" y="390.9999999999999" as="sourcePoint" />
            <mxPoint x="3050" y="370.9999999999999" as="targetPoint" />
            <Array as="points">
              <mxPoint x="2965" y="370.9999999999999" />
            </Array>
          </mxGeometry>
        </mxCell>
        <mxCell id="c8lWVxjifEEdm04KX2j0-31" value="&lt;span style=&quot;font-size: 10px;&quot;&gt;Запросить адрес доставки и оплатить доставку&lt;/span&gt;" style="rounded=1;whiteSpace=wrap;html=1;shadow=0;labelBackgroundColor=none;strokeWidth=1;fontFamily=Verdana;fontSize=8;align=center;" parent="cHXaKANqje5P_EdxZyNm-1" vertex="1">
          <mxGeometry x="3050" y="339.88" width="110" height="62.09" as="geometry" />
        </mxCell>
        <mxCell id="c8lWVxjifEEdm04KX2j0-32" value="" style="endArrow=classic;html=1;rounded=0;" parent="cHXaKANqje5P_EdxZyNm-1" target="c8lWVxjifEEdm04KX2j0-24" edge="1">
          <mxGeometry width="50" height="50" relative="1" as="geometry">
            <mxPoint x="3090" y="23.060000000000116" as="sourcePoint" />
            <mxPoint x="3140" y="-26.939999999999884" as="targetPoint" />
            <Array as="points">
              <mxPoint x="3155" y="23.060000000000116" />
            </Array>
          </mxGeometry>
        </mxCell>
        <mxCell id="c8lWVxjifEEdm04KX2j0-33" value="" style="endArrow=classic;html=1;rounded=0;exitX=1;exitY=0.5;exitDx=0;exitDy=0;exitPerimeter=0;" parent="cHXaKANqje5P_EdxZyNm-1" edge="1">
          <mxGeometry width="50" height="50" relative="1" as="geometry">
            <mxPoint x="3090" y="102.80000000000013" as="sourcePoint" />
            <mxPoint x="3130" y="103.24000000000018" as="targetPoint" />
          </mxGeometry>
        </mxCell>
        <mxCell id="c8lWVxjifEEdm04KX2j0-34" value="" style="endArrow=classic;html=1;rounded=0;entryX=0.5;entryY=1;entryDx=0;entryDy=0;entryPerimeter=0;" parent="cHXaKANqje5P_EdxZyNm-1" target="c8lWVxjifEEdm04KX2j0-24" edge="1">
          <mxGeometry width="50" height="50" relative="1" as="geometry">
            <mxPoint x="3090" y="164.0900000000001" as="sourcePoint" />
            <mxPoint x="3140" y="114.09000000000009" as="targetPoint" />
            <Array as="points">
              <mxPoint x="3155" y="163.06000000000012" />
            </Array>
          </mxGeometry>
        </mxCell>
        <mxCell id="cHXaKANqje5P_EdxZyNm-2" value="&lt;span style=&quot;font-size: 10px;&quot;&gt;Заходит на сайт благотворительного фонда&lt;/span&gt;" style="rounded=1;whiteSpace=wrap;html=1;shadow=0;labelBackgroundColor=none;strokeWidth=1;fontFamily=Verdana;fontSize=8;align=center;" parent="cHXaKANqje5P_EdxZyNm-1" vertex="1">
          <mxGeometry x="2230" y="256.6200000000002" width="130" height="68.06" as="geometry" />
        </mxCell>
        <mxCell id="cHXaKANqje5P_EdxZyNm-3" value="&lt;span style=&quot;font-size: 10px;&quot;&gt;Изучает информацию о нуждающихся в помощи&lt;/span&gt;" style="rounded=1;whiteSpace=wrap;html=1;shadow=0;labelBackgroundColor=none;strokeWidth=1;fontFamily=Verdana;fontSize=8;align=center;" parent="cHXaKANqje5P_EdxZyNm-1" vertex="1">
          <mxGeometry x="2400" y="260.09000000000003" width="130" height="68.06" as="geometry" />
        </mxCell>
        <mxCell id="cHXaKANqje5P_EdxZyNm-7" value="&lt;span style=&quot;font-size: 10px;&quot;&gt;Выбирает кому помочь&lt;/span&gt;" style="rounded=1;whiteSpace=wrap;html=1;shadow=0;labelBackgroundColor=none;strokeWidth=1;fontFamily=Verdana;fontSize=8;align=center;" parent="cHXaKANqje5P_EdxZyNm-1" vertex="1">
          <mxGeometry x="2570" y="256.62" width="130" height="68.06" as="geometry" />
        </mxCell>
        <mxCell id="c8lWVxjifEEdm04KX2j0-36" value="" style="endArrow=classic;html=1;rounded=0;entryX=0;entryY=0.5;entryDx=0;entryDy=0;entryPerimeter=0;exitX=1;exitY=0.5;exitDx=0;exitDy=0;" parent="cHXaKANqje5P_EdxZyNm-1" source="cHXaKANqje5P_EdxZyNm-7" target="c8lWVxjifEEdm04KX2j0-11" edge="1">
          <mxGeometry width="50" height="50" relative="1" as="geometry">
            <mxPoint x="2710" y="201.94000000000005" as="sourcePoint" />
            <mxPoint x="2760" y="151.94000000000005" as="targetPoint" />
          </mxGeometry>
        </mxCell>
        <mxCell id="cHXaKANqje5P_EdxZyNm-8" value="" style="endArrow=classic;html=1;rounded=0;exitX=1;exitY=0.5;exitDx=0;exitDy=0;exitPerimeter=0;entryX=0;entryY=0.5;entryDx=0;entryDy=0;" parent="cHXaKANqje5P_EdxZyNm-1" target="cHXaKANqje5P_EdxZyNm-3" edge="1">
          <mxGeometry width="50" height="50" relative="1" as="geometry">
            <mxPoint x="2360" y="293.15" as="sourcePoint" />
            <mxPoint x="2400" y="293.2099999999999" as="targetPoint" />
          </mxGeometry>
        </mxCell>
        <mxCell id="cHXaKANqje5P_EdxZyNm-9" value="" style="endArrow=classic;html=1;rounded=0;exitX=1;exitY=0.5;exitDx=0;exitDy=0;" parent="cHXaKANqje5P_EdxZyNm-1" source="cHXaKANqje5P_EdxZyNm-3" edge="1">
          <mxGeometry width="50" height="50" relative="1" as="geometry">
            <mxPoint x="2540" y="289.82000000000005" as="sourcePoint" />
            <mxPoint x="2570" y="294.27" as="targetPoint" />
          </mxGeometry>
        </mxCell>
        <mxCell id="c8lWVxjifEEdm04KX2j0-39" value="" style="endArrow=classic;html=1;rounded=0;exitX=1;exitY=0.5;exitDx=0;exitDy=0;exitPerimeter=0;entryX=0;entryY=0.5;entryDx=0;entryDy=0;" parent="cHXaKANqje5P_EdxZyNm-1" source="c8lWVxjifEEdm04KX2j0-11" target="c8lWVxjifEEdm04KX2j0-41" edge="1">
          <mxGeometry width="50" height="50" relative="1" as="geometry">
            <mxPoint x="2850" y="240.1500000000001" as="sourcePoint" />
            <mxPoint x="2980" y="292" as="targetPoint" />
          </mxGeometry>
        </mxCell>
        <mxCell id="c8lWVxjifEEdm04KX2j0-40" value="Деньгами в фонд&lt;div&gt;на конкретную&lt;/div&gt;&lt;div&gt;семью&lt;/div&gt;" style="text;html=1;align=center;verticalAlign=middle;resizable=0;points=[];autosize=1;strokeColor=none;fillColor=none;" parent="cHXaKANqje5P_EdxZyNm-1" vertex="1">
          <mxGeometry x="2830" y="293.9100000000001" width="120" height="60" as="geometry" />
        </mxCell>
        <mxCell id="cHXaKANqje5P_EdxZyNm-5" value="как помочь?" style="text;html=1;align=center;verticalAlign=middle;resizable=0;points=[];autosize=1;strokeColor=none;fillColor=none;" parent="cHXaKANqje5P_EdxZyNm-1" vertex="1">
          <mxGeometry x="2700" y="298.90999999999997" width="90" height="30" as="geometry" />
        </mxCell>
        <mxCell id="c8lWVxjifEEdm04KX2j0-41" value="&lt;span style=&quot;font-size: 10px;&quot;&gt;Заполняет онлайн форму на сайте&lt;/span&gt;" style="rounded=1;whiteSpace=wrap;html=1;shadow=0;labelBackgroundColor=none;strokeWidth=1;fontFamily=Verdana;fontSize=8;align=center;" parent="cHXaKANqje5P_EdxZyNm-1" vertex="1">
          <mxGeometry x="2950" y="264.3199999999999" width="110" height="53.06" as="geometry" />
        </mxCell>
        <mxCell id="c8lWVxjifEEdm04KX2j0-42" value="&lt;span style=&quot;font-size: 10px;&quot;&gt;выбирает семью для перевода из предложенного списка&lt;/span&gt;" style="rounded=1;whiteSpace=wrap;html=1;shadow=0;labelBackgroundColor=none;strokeWidth=1;fontFamily=Verdana;fontSize=8;align=center;" parent="cHXaKANqje5P_EdxZyNm-1" vertex="1">
          <mxGeometry x="3100" y="262.3799999999999" width="110" height="53.06" as="geometry" />
        </mxCell>
        <mxCell id="c8lWVxjifEEdm04KX2j0-43" value="" style="endArrow=classic;html=1;rounded=0;entryX=0;entryY=0.5;entryDx=0;entryDy=0;" parent="cHXaKANqje5P_EdxZyNm-1" target="c8lWVxjifEEdm04KX2j0-42" edge="1">
          <mxGeometry width="50" height="50" relative="1" as="geometry">
            <mxPoint x="3060" y="289.8800000000001" as="sourcePoint" />
            <mxPoint x="3110" y="239.8800000000001" as="targetPoint" />
          </mxGeometry>
        </mxCell>
        <mxCell id="c8lWVxjifEEdm04KX2j0-46" value="" style="endArrow=classic;html=1;rounded=0;entryX=0.5;entryY=1;entryDx=0;entryDy=0;entryPerimeter=0;" parent="cHXaKANqje5P_EdxZyNm-1" target="c8lWVxjifEEdm04KX2j0-47" edge="1">
          <mxGeometry width="50" height="50" relative="1" as="geometry">
            <mxPoint x="3210" y="289.8800000000001" as="sourcePoint" />
            <mxPoint x="3350" y="-200" as="targetPoint" />
            <Array as="points">
              <mxPoint x="3350" y="290" />
            </Array>
          </mxGeometry>
        </mxCell>
        <mxCell id="c8lWVxjifEEdm04KX2j0-49" value="" style="endArrow=classic;html=1;rounded=0;entryX=0.5;entryY=1;entryDx=0;entryDy=0;entryPerimeter=0;" parent="cHXaKANqje5P_EdxZyNm-1" target="c8lWVxjifEEdm04KX2j0-50" edge="1">
          <mxGeometry width="50" height="50" relative="1" as="geometry">
            <mxPoint x="3160" y="370.97" as="sourcePoint" />
            <mxPoint x="3450" y="-40" as="targetPoint" />
            <Array as="points">
              <mxPoint x="3450" y="371" />
            </Array>
          </mxGeometry>
        </mxCell>
        <mxCell id="c8lWVxjifEEdm04KX2j0-52" value="" style="endArrow=classic;html=1;rounded=0;exitX=1;exitY=0.5;exitDx=0;exitDy=0;entryX=0.5;entryY=1;entryDx=0;entryDy=0;entryPerimeter=0;" parent="cHXaKANqje5P_EdxZyNm-1" target="c8lWVxjifEEdm04KX2j0-54" edge="1">
          <mxGeometry width="50" height="50" relative="1" as="geometry">
            <mxPoint x="3180" y="516" as="sourcePoint" />
            <mxPoint x="3560" y="-170" as="targetPoint" />
            <Array as="points">
              <mxPoint x="3560" y="515" />
            </Array>
          </mxGeometry>
        </mxCell>
        <mxCell id="cHXaKANqje5P_EdxZyNm-36" value="&lt;span style=&quot;font-size: 10px;&quot;&gt;Отправляет посылку&lt;/span&gt;&lt;div&gt;&lt;span style=&quot;font-size: 10px;&quot;&gt;с вещами нуждающейся семье&lt;/span&gt;&lt;/div&gt;" style="rounded=1;whiteSpace=wrap;html=1;shadow=0;labelBackgroundColor=none;strokeWidth=1;fontFamily=Verdana;fontSize=8;align=center;" parent="cHXaKANqje5P_EdxZyNm-1" vertex="1">
          <mxGeometry x="4180" y="285.85000000000014" width="130" height="68.06" as="geometry" />
        </mxCell>
        <mxCell id="c8lWVxjifEEdm04KX2j0-55" value="" style="points=[[0.145,0.145,0],[0.5,0,0],[0.855,0.145,0],[1,0.5,0],[0.855,0.855,0],[0.5,1,0],[0.145,0.855,0],[0,0.5,0]];shape=mxgraph.bpmn.event;html=1;verticalLabelPosition=bottom;labelBackgroundColor=#ffffff;verticalAlign=top;align=center;perimeter=ellipsePerimeter;outlineConnect=0;aspect=fixed;outline=catching;symbol=message;" parent="cHXaKANqje5P_EdxZyNm-1" vertex="1">
          <mxGeometry x="4060" y="293.9100000000001" width="55" height="55" as="geometry" />
        </mxCell>
        <mxCell id="c8lWVxjifEEdm04KX2j0-65" value="" style="endArrow=classic;html=1;rounded=0;entryX=0;entryY=0.5;entryDx=0;entryDy=0;exitX=1;exitY=0.5;exitDx=0;exitDy=0;exitPerimeter=0;" parent="cHXaKANqje5P_EdxZyNm-1" source="c8lWVxjifEEdm04KX2j0-55" target="cHXaKANqje5P_EdxZyNm-36" edge="1">
          <mxGeometry width="50" height="50" relative="1" as="geometry">
            <mxPoint x="4110" y="319.1199999999999" as="sourcePoint" />
            <mxPoint x="4160" y="269.1199999999999" as="targetPoint" />
          </mxGeometry>
        </mxCell>
        <mxCell id="c8lWVxjifEEdm04KX2j0-154" value="" style="endArrow=classic;html=1;rounded=0;entryX=0.5;entryY=1;entryDx=0;entryDy=0;entryPerimeter=0;exitX=1;exitY=0.5;exitDx=0;exitDy=0;" parent="cHXaKANqje5P_EdxZyNm-1" source="cHXaKANqje5P_EdxZyNm-36" target="cHXaKANqje5P_EdxZyNm-38" edge="1">
          <mxGeometry width="50" height="50" relative="1" as="geometry">
            <mxPoint x="4320" y="319.1199999999999" as="sourcePoint" />
            <mxPoint x="4370" y="269.1199999999999" as="targetPoint" />
            <Array as="points">
              <mxPoint x="4897" y="320" />
            </Array>
          </mxGeometry>
        </mxCell>
        <mxCell id="cHXaKANqje5P_EdxZyNm-40" value="Представитель фонда" style="swimlane;startSize=20;horizontal=0;html=1;whiteSpace=wrap;strokeWidth=1;fillColor=none;" parent="1" vertex="1">
          <mxGeometry x="90" y="690" width="6210" height="450" as="geometry" />
        </mxCell>
        <mxCell id="cHXaKANqje5P_EdxZyNm-41" value="" style="points=[[0.145,0.145,0],[0.5,0,0],[0.855,0.145,0],[1,0.5,0],[0.855,0.855,0],[0.5,1,0],[0.145,0.855,0],[0,0.5,0]];shape=mxgraph.bpmn.event;html=1;verticalLabelPosition=bottom;labelBackgroundColor=#ffffff;verticalAlign=top;align=center;perimeter=ellipsePerimeter;outlineConnect=0;aspect=fixed;outline=catching;symbol=message;" parent="cHXaKANqje5P_EdxZyNm-40" vertex="1">
          <mxGeometry x="632.5" y="171.32" width="55" height="55" as="geometry" />
        </mxCell>
        <mxCell id="cHXaKANqje5P_EdxZyNm-48" value="Получает заявку&amp;nbsp;&lt;div&gt;о помощи&lt;/div&gt;" style="text;html=1;align=center;verticalAlign=middle;resizable=0;points=[];autosize=1;strokeColor=none;fillColor=none;" parent="cHXaKANqje5P_EdxZyNm-40" vertex="1">
          <mxGeometry x="580" y="231.86999999999998" width="120" height="40" as="geometry" />
        </mxCell>
        <mxCell id="cHXaKANqje5P_EdxZyNm-49" value="&lt;span style=&quot;font-size: 10px;&quot;&gt;Проверяет документы на соответствии&lt;/span&gt;" style="rounded=1;whiteSpace=wrap;html=1;shadow=0;labelBackgroundColor=none;strokeWidth=1;fontFamily=Verdana;fontSize=8;align=center;" parent="cHXaKANqje5P_EdxZyNm-40" vertex="1">
          <mxGeometry x="870" y="261.63999999999993" width="100" height="68.88" as="geometry" />
        </mxCell>
        <mxCell id="cHXaKANqje5P_EdxZyNm-50" value="" style="endArrow=classic;html=1;rounded=0;exitX=1;exitY=0.5;exitDx=0;exitDy=0;exitPerimeter=0;entryX=0;entryY=0.5;entryDx=0;entryDy=0;entryPerimeter=0;" parent="cHXaKANqje5P_EdxZyNm-40" source="cHXaKANqje5P_EdxZyNm-41" target="c8lWVxjifEEdm04KX2j0-1" edge="1">
          <mxGeometry width="50" height="50" relative="1" as="geometry">
            <mxPoint x="685" y="117.79999999999995" as="sourcePoint" />
            <mxPoint x="762" y="117.79999999999995" as="targetPoint" />
          </mxGeometry>
        </mxCell>
        <mxCell id="cHXaKANqje5P_EdxZyNm-51" value="Предоставлен полный&amp;nbsp;&lt;div&gt;и корректный&lt;div&gt;пакет документов?&lt;/div&gt;&lt;/div&gt;" style="text;html=1;align=center;verticalAlign=middle;resizable=0;points=[];autosize=1;strokeColor=none;fillColor=none;" parent="cHXaKANqje5P_EdxZyNm-40" vertex="1">
          <mxGeometry x="1020" y="120.00000000000001" width="150" height="60" as="geometry" />
        </mxCell>
        <mxCell id="cHXaKANqje5P_EdxZyNm-42" value="" style="points=[[0.25,0.25,0],[0.5,0,0],[0.75,0.25,0],[1,0.5,0],[0.75,0.75,0],[0.5,1,0],[0.25,0.75,0],[0,0.5,0]];shape=mxgraph.bpmn.gateway2;html=1;verticalLabelPosition=bottom;labelBackgroundColor=#ffffff;verticalAlign=top;align=center;perimeter=rhombusPerimeter;outlineConnect=0;outline=none;symbol=none;gwType=exclusive;" parent="cHXaKANqje5P_EdxZyNm-40" vertex="1">
          <mxGeometry x="1140" y="165.97" width="50" height="50" as="geometry" />
        </mxCell>
        <mxCell id="cHXaKANqje5P_EdxZyNm-43" value="&lt;span style=&quot;font-size: 10px;&quot;&gt;Связывается с нуждающимся по телефону&lt;/span&gt;" style="rounded=1;whiteSpace=wrap;html=1;shadow=0;labelBackgroundColor=none;strokeWidth=1;fontFamily=Verdana;fontSize=8;align=center;" parent="cHXaKANqje5P_EdxZyNm-40" vertex="1">
          <mxGeometry x="1220" y="88.34" width="110" height="59.44" as="geometry" />
        </mxCell>
        <mxCell id="cHXaKANqje5P_EdxZyNm-44" value="" style="endArrow=classic;html=1;rounded=0;exitX=0.5;exitY=0;exitDx=0;exitDy=0;exitPerimeter=0;entryX=0;entryY=0.5;entryDx=0;entryDy=0;entryPerimeter=0;" parent="cHXaKANqje5P_EdxZyNm-40" source="c8lWVxjifEEdm04KX2j0-7" target="cHXaKANqje5P_EdxZyNm-42" edge="1">
          <mxGeometry width="50" height="50" relative="1" as="geometry">
            <mxPoint x="1040" y="116.78999999999996" as="sourcePoint" />
            <mxPoint x="1110" y="117.35" as="targetPoint" />
          </mxGeometry>
        </mxCell>
        <mxCell id="cHXaKANqje5P_EdxZyNm-45" value="" style="endArrow=classic;html=1;rounded=0;exitX=0.5;exitY=0;exitDx=0;exitDy=0;exitPerimeter=0;" parent="cHXaKANqje5P_EdxZyNm-40" source="cHXaKANqje5P_EdxZyNm-42" edge="1">
          <mxGeometry width="50" height="50" relative="1" as="geometry">
            <mxPoint x="1283" y="115.62" as="sourcePoint" />
            <mxPoint x="1220" y="116" as="targetPoint" />
            <Array as="points">
              <mxPoint x="1165" y="116" />
            </Array>
          </mxGeometry>
        </mxCell>
        <mxCell id="cHXaKANqje5P_EdxZyNm-46" value="" style="endArrow=classic;html=1;rounded=0;exitX=0.5;exitY=1;exitDx=0;exitDy=0;exitPerimeter=0;entryX=0.5;entryY=1;entryDx=0;entryDy=0;entryPerimeter=0;" parent="cHXaKANqje5P_EdxZyNm-40" source="cHXaKANqje5P_EdxZyNm-42" target="cHXaKANqje5P_EdxZyNm-63" edge="1">
          <mxGeometry width="50" height="50" relative="1" as="geometry">
            <mxPoint x="1170" y="225.56" as="sourcePoint" />
            <mxPoint x="1280" y="300" as="targetPoint" />
            <Array as="points">
              <mxPoint x="1165" y="300" />
              <mxPoint x="1823" y="300" />
            </Array>
          </mxGeometry>
        </mxCell>
        <mxCell id="cHXaKANqje5P_EdxZyNm-52" value="Да" style="text;html=1;align=center;verticalAlign=middle;resizable=0;points=[];autosize=1;strokeColor=none;fillColor=none;" parent="cHXaKANqje5P_EdxZyNm-40" vertex="1">
          <mxGeometry x="1120" y="261.64" width="40" height="30" as="geometry" />
        </mxCell>
        <mxCell id="cHXaKANqje5P_EdxZyNm-53" value="Нет" style="text;html=1;align=center;verticalAlign=middle;resizable=0;points=[];autosize=1;strokeColor=none;fillColor=none;" parent="cHXaKANqje5P_EdxZyNm-40" vertex="1">
          <mxGeometry x="1145" y="89.99999999999994" width="40" height="30" as="geometry" />
        </mxCell>
        <mxCell id="cHXaKANqje5P_EdxZyNm-54" value="&lt;span style=&quot;font-size: 10px;&quot;&gt;Просит предоставить недостающие документы, материапы&lt;/span&gt;" style="rounded=1;whiteSpace=wrap;html=1;shadow=0;labelBackgroundColor=none;strokeWidth=1;fontFamily=Verdana;fontSize=8;align=center;" parent="cHXaKANqje5P_EdxZyNm-40" vertex="1">
          <mxGeometry x="1380" y="88.34" width="110" height="59.44" as="geometry" />
        </mxCell>
        <mxCell id="cHXaKANqje5P_EdxZyNm-55" value="" style="endArrow=classic;html=1;rounded=0;exitX=1;exitY=0.5;exitDx=0;exitDy=0;exitPerimeter=0;" parent="cHXaKANqje5P_EdxZyNm-40" edge="1">
          <mxGeometry width="50" height="50" relative="1" as="geometry">
            <mxPoint x="1330" y="117.56000000000006" as="sourcePoint" />
            <mxPoint x="1380" y="118" as="targetPoint" />
          </mxGeometry>
        </mxCell>
        <mxCell id="cHXaKANqje5P_EdxZyNm-56" value="" style="points=[[0.145,0.145,0],[0.5,0,0],[0.855,0.145,0],[1,0.5,0],[0.855,0.855,0],[0.5,1,0],[0.145,0.855,0],[0,0.5,0]];shape=mxgraph.bpmn.event;html=1;verticalLabelPosition=bottom;labelBackgroundColor=#ffffff;verticalAlign=top;align=center;perimeter=ellipsePerimeter;outlineConnect=0;aspect=fixed;outline=catching;symbol=message;" parent="cHXaKANqje5P_EdxZyNm-40" vertex="1">
          <mxGeometry x="1690" y="149.16" width="55" height="55" as="geometry" />
        </mxCell>
        <mxCell id="cHXaKANqje5P_EdxZyNm-57" value="&lt;span style=&quot;font-size: 10px;&quot;&gt;Создает карточку нуждающейся семьи&lt;/span&gt;" style="rounded=1;whiteSpace=wrap;html=1;shadow=0;labelBackgroundColor=none;strokeWidth=1;fontFamily=Verdana;fontSize=8;align=center;" parent="cHXaKANqje5P_EdxZyNm-40" vertex="1">
          <mxGeometry x="1921.5" y="200.00000000000006" width="130" height="68.06" as="geometry" />
        </mxCell>
        <mxCell id="cHXaKANqje5P_EdxZyNm-58" value="" style="endArrow=classic;html=1;rounded=0;exitX=1;exitY=0.5;exitDx=0;exitDy=0;exitPerimeter=0;entryX=0;entryY=0.5;entryDx=0;entryDy=0;" parent="cHXaKANqje5P_EdxZyNm-40" source="cHXaKANqje5P_EdxZyNm-63" target="cHXaKANqje5P_EdxZyNm-57" edge="1">
          <mxGeometry width="50" height="50" relative="1" as="geometry">
            <mxPoint x="1859" y="233.53000000000003" as="sourcePoint" />
            <mxPoint x="1936" y="233.53000000000003" as="targetPoint" />
          </mxGeometry>
        </mxCell>
        <mxCell id="cHXaKANqje5P_EdxZyNm-59" value="Получает недостающий&amp;nbsp;&lt;div&gt;комплект документов&lt;/div&gt;" style="text;html=1;align=center;verticalAlign=middle;resizable=0;points=[];autosize=1;strokeColor=none;fillColor=none;" parent="cHXaKANqje5P_EdxZyNm-40" vertex="1">
          <mxGeometry x="1637.5" y="204.72000000000003" width="160" height="40" as="geometry" />
        </mxCell>
        <mxCell id="cHXaKANqje5P_EdxZyNm-60" value="" style="points=[[0.145,0.145,0],[0.5,0,0],[0.855,0.145,0],[1,0.5,0],[0.855,0.855,0],[0.5,1,0],[0.145,0.855,0],[0,0.5,0]];shape=mxgraph.bpmn.event;html=1;verticalLabelPosition=bottom;labelBackgroundColor=#ffffff;verticalAlign=top;align=center;perimeter=ellipsePerimeter;outlineConnect=0;aspect=fixed;outline=end;symbol=terminate2;" parent="cHXaKANqje5P_EdxZyNm-40" vertex="1">
          <mxGeometry x="1590" y="115.48000000000003" width="50" height="50" as="geometry" />
        </mxCell>
        <mxCell id="cHXaKANqje5P_EdxZyNm-61" value="Отказ в помощи" style="text;html=1;align=center;verticalAlign=middle;resizable=0;points=[];autosize=1;strokeColor=none;fillColor=none;" parent="cHXaKANqje5P_EdxZyNm-40" vertex="1">
          <mxGeometry x="1560" y="161.65999999999997" width="110" height="30" as="geometry" />
        </mxCell>
        <mxCell id="cHXaKANqje5P_EdxZyNm-62" value="" style="endArrow=classic;html=1;rounded=0;exitX=1;exitY=0.5;exitDx=0;exitDy=0;exitPerimeter=0;entryX=0.5;entryY=0;entryDx=0;entryDy=0;entryPerimeter=0;" parent="cHXaKANqje5P_EdxZyNm-40" target="cHXaKANqje5P_EdxZyNm-63" edge="1">
          <mxGeometry width="50" height="50" relative="1" as="geometry">
            <mxPoint x="1745" y="176.16000000000008" as="sourcePoint" />
            <mxPoint x="1822" y="176.16000000000008" as="targetPoint" />
            <Array as="points">
              <mxPoint x="1823" y="176" />
            </Array>
          </mxGeometry>
        </mxCell>
        <mxCell id="cHXaKANqje5P_EdxZyNm-63" value="" style="points=[[0.25,0.25,0],[0.5,0,0],[0.75,0.25,0],[1,0.5,0],[0.75,0.75,0],[0.5,1,0],[0.25,0.75,0],[0,0.5,0]];shape=mxgraph.bpmn.gateway2;html=1;verticalLabelPosition=bottom;labelBackgroundColor=#ffffff;verticalAlign=top;align=center;perimeter=rhombusPerimeter;outlineConnect=0;outline=none;symbol=none;gwType=exclusive;" parent="cHXaKANqje5P_EdxZyNm-40" vertex="1">
          <mxGeometry x="1797.5" y="210.00000000000003" width="50" height="50" as="geometry" />
        </mxCell>
        <mxCell id="cHXaKANqje5P_EdxZyNm-64" value="&lt;span style=&quot;font-size: 10px;&quot;&gt;Заполняет информацию о ней&lt;/span&gt;" style="rounded=1;whiteSpace=wrap;html=1;shadow=0;labelBackgroundColor=none;strokeWidth=1;fontFamily=Verdana;fontSize=8;align=center;" parent="cHXaKANqje5P_EdxZyNm-40" vertex="1">
          <mxGeometry x="2091.5" y="200" width="130" height="68.06" as="geometry" />
        </mxCell>
        <mxCell id="cHXaKANqje5P_EdxZyNm-65" value="&lt;span style=&quot;font-size: 10px;&quot;&gt;Прикрепляет&amp;nbsp; подтверждающие документы&lt;/span&gt;" style="rounded=1;whiteSpace=wrap;html=1;shadow=0;labelBackgroundColor=none;strokeWidth=1;fontFamily=Verdana;fontSize=8;align=center;" parent="cHXaKANqje5P_EdxZyNm-40" vertex="1">
          <mxGeometry x="2261.5" y="200" width="130" height="68.06" as="geometry" />
        </mxCell>
        <mxCell id="cHXaKANqje5P_EdxZyNm-66" value="" style="endArrow=classic;html=1;rounded=0;exitX=1;exitY=0.5;exitDx=0;exitDy=0;exitPerimeter=0;entryX=0;entryY=0.5;entryDx=0;entryDy=0;" parent="cHXaKANqje5P_EdxZyNm-40" target="cHXaKANqje5P_EdxZyNm-64" edge="1">
          <mxGeometry width="50" height="50" relative="1" as="geometry">
            <mxPoint x="2051.5" y="233.52999999999997" as="sourcePoint" />
            <mxPoint x="2114" y="234.02999999999997" as="targetPoint" />
          </mxGeometry>
        </mxCell>
        <mxCell id="cHXaKANqje5P_EdxZyNm-67" value="" style="endArrow=classic;html=1;rounded=0;exitX=1;exitY=0.5;exitDx=0;exitDy=0;exitPerimeter=0;" parent="cHXaKANqje5P_EdxZyNm-40" edge="1">
          <mxGeometry width="50" height="50" relative="1" as="geometry">
            <mxPoint x="2221.5" y="234.68999999999994" as="sourcePoint" />
            <mxPoint x="2261.5" y="235.02999999999997" as="targetPoint" />
          </mxGeometry>
        </mxCell>
        <mxCell id="cHXaKANqje5P_EdxZyNm-88" value="" style="endArrow=classic;html=1;rounded=0;" parent="cHXaKANqje5P_EdxZyNm-40" edge="1">
          <mxGeometry width="50" height="50" relative="1" as="geometry">
            <mxPoint x="1720" y="-73" as="sourcePoint" />
            <mxPoint x="1720" y="150.00000000000006" as="targetPoint" />
          </mxGeometry>
        </mxCell>
        <mxCell id="cHXaKANqje5P_EdxZyNm-99" value="&lt;span style=&quot;font-size: 10px;&quot;&gt;Направляет информацию&amp;nbsp;&lt;/span&gt;" style="rounded=1;whiteSpace=wrap;html=1;shadow=0;labelBackgroundColor=none;strokeWidth=1;fontFamily=Verdana;fontSize=8;align=center;" parent="cHXaKANqje5P_EdxZyNm-40" vertex="1">
          <mxGeometry x="1650" y="-140.85999999999999" width="130" height="68.06" as="geometry" />
        </mxCell>
        <mxCell id="c8lWVxjifEEdm04KX2j0-1" value="" style="points=[[0.25,0.25,0],[0.5,0,0],[0.75,0.25,0],[1,0.5,0],[0.75,0.75,0],[0.5,1,0],[0.25,0.75,0],[0,0.5,0]];shape=mxgraph.bpmn.gateway2;html=1;verticalLabelPosition=bottom;labelBackgroundColor=#ffffff;verticalAlign=top;align=center;perimeter=rhombusPerimeter;outlineConnect=0;outline=none;symbol=none;gwType=parallel;" parent="cHXaKANqje5P_EdxZyNm-40" vertex="1">
          <mxGeometry x="760" y="172.99" width="50" height="50" as="geometry" />
        </mxCell>
        <mxCell id="c8lWVxjifEEdm04KX2j0-2" value="" style="endArrow=classic;html=1;rounded=0;exitX=0.5;exitY=0;exitDx=0;exitDy=0;exitPerimeter=0;" parent="cHXaKANqje5P_EdxZyNm-40" source="c8lWVxjifEEdm04KX2j0-1" edge="1">
          <mxGeometry width="50" height="50" relative="1" as="geometry">
            <mxPoint x="790" y="60" as="sourcePoint" />
            <mxPoint x="785" y="-170" as="targetPoint" />
            <Array as="points">
              <mxPoint x="785" y="40" />
            </Array>
          </mxGeometry>
        </mxCell>
        <mxCell id="c8lWVxjifEEdm04KX2j0-3" value="" style="endArrow=classic;html=1;rounded=0;exitX=0.5;exitY=1;exitDx=0;exitDy=0;exitPerimeter=0;" parent="cHXaKANqje5P_EdxZyNm-40" source="c8lWVxjifEEdm04KX2j0-1" edge="1">
          <mxGeometry width="50" height="50" relative="1" as="geometry">
            <mxPoint x="825" y="361.4000000000001" as="sourcePoint" />
            <mxPoint x="870" y="290.49" as="targetPoint" />
            <Array as="points">
              <mxPoint x="785" y="290.49" />
            </Array>
          </mxGeometry>
        </mxCell>
        <mxCell id="c8lWVxjifEEdm04KX2j0-7" value="" style="points=[[0.25,0.25,0],[0.5,0,0],[0.75,0.25,0],[1,0.5,0],[0.75,0.75,0],[0.5,1,0],[0.25,0.75,0],[0,0.5,0]];shape=mxgraph.bpmn.gateway2;html=1;verticalLabelPosition=bottom;labelBackgroundColor=#ffffff;verticalAlign=top;align=center;perimeter=rhombusPerimeter;outlineConnect=0;outline=none;symbol=none;gwType=parallel;direction=south;" parent="cHXaKANqje5P_EdxZyNm-40" vertex="1">
          <mxGeometry x="990" y="165.96999999999997" width="50" height="50" as="geometry" />
        </mxCell>
        <mxCell id="c8lWVxjifEEdm04KX2j0-8" value="" style="endArrow=classic;html=1;rounded=0;entryX=1;entryY=0.5;entryDx=0;entryDy=0;entryPerimeter=0;" parent="cHXaKANqje5P_EdxZyNm-40" target="c8lWVxjifEEdm04KX2j0-7" edge="1">
          <mxGeometry width="50" height="50" relative="1" as="geometry">
            <mxPoint x="970" y="295.97" as="sourcePoint" />
            <mxPoint x="1020" y="245.97000000000003" as="targetPoint" />
            <Array as="points">
              <mxPoint x="1015" y="295.49" />
            </Array>
          </mxGeometry>
        </mxCell>
        <mxCell id="c8lWVxjifEEdm04KX2j0-47" value="" style="points=[[0.145,0.145,0],[0.5,0,0],[0.855,0.145,0],[1,0.5,0],[0.855,0.855,0],[0.5,1,0],[0.145,0.855,0],[0,0.5,0]];shape=mxgraph.bpmn.event;html=1;verticalLabelPosition=bottom;labelBackgroundColor=#ffffff;verticalAlign=top;align=center;perimeter=ellipsePerimeter;outlineConnect=0;aspect=fixed;outline=catching;symbol=message;" parent="cHXaKANqje5P_EdxZyNm-40" vertex="1">
          <mxGeometry x="3320" y="184.99999999999997" width="55" height="55" as="geometry" />
        </mxCell>
        <mxCell id="c8lWVxjifEEdm04KX2j0-48" value="Оповещение на почту:&amp;nbsp;&lt;div&gt;Получен перевод для семьи&amp;nbsp;&lt;/div&gt;&lt;div&gt;Фамилия в размере&amp;nbsp;&lt;/div&gt;" style="text;html=1;align=center;verticalAlign=middle;resizable=0;points=[];autosize=1;strokeColor=none;fillColor=none;" parent="cHXaKANqje5P_EdxZyNm-40" vertex="1">
          <mxGeometry x="3167.5" y="240" width="180" height="60" as="geometry" />
        </mxCell>
        <mxCell id="c8lWVxjifEEdm04KX2j0-50" value="" style="points=[[0.145,0.145,0],[0.5,0,0],[0.855,0.145,0],[1,0.5,0],[0.855,0.855,0],[0.5,1,0],[0.145,0.855,0],[0,0.5,0]];shape=mxgraph.bpmn.event;html=1;verticalLabelPosition=bottom;labelBackgroundColor=#ffffff;verticalAlign=top;align=center;perimeter=ellipsePerimeter;outlineConnect=0;aspect=fixed;outline=catching;symbol=message;" parent="cHXaKANqje5P_EdxZyNm-40" vertex="1">
          <mxGeometry x="3420" y="350.00000000000034" width="55" height="55" as="geometry" />
        </mxCell>
        <mxCell id="c8lWVxjifEEdm04KX2j0-51" value="Запрос адреса для доставки&lt;div&gt;нуждающимся и оплат доставки&lt;/div&gt;" style="text;html=1;align=center;verticalAlign=middle;resizable=0;points=[];autosize=1;strokeColor=none;fillColor=none;" parent="cHXaKANqje5P_EdxZyNm-40" vertex="1">
          <mxGeometry x="3347.5" y="300" width="200" height="40" as="geometry" />
        </mxCell>
        <mxCell id="c8lWVxjifEEdm04KX2j0-53" value="Запрос адреса для доставки&lt;div&gt;нуждающимся&lt;/div&gt;" style="text;html=1;align=center;verticalAlign=middle;resizable=0;points=[];autosize=1;strokeColor=none;fillColor=none;" parent="cHXaKANqje5P_EdxZyNm-40" vertex="1">
          <mxGeometry x="3467.5" y="175.06999999999994" width="180" height="40" as="geometry" />
        </mxCell>
        <mxCell id="c8lWVxjifEEdm04KX2j0-54" value="" style="points=[[0.145,0.145,0],[0.5,0,0],[0.855,0.145,0],[1,0.5,0],[0.855,0.855,0],[0.5,1,0],[0.145,0.855,0],[0,0.5,0]];shape=mxgraph.bpmn.event;html=1;verticalLabelPosition=bottom;labelBackgroundColor=#ffffff;verticalAlign=top;align=center;perimeter=ellipsePerimeter;outlineConnect=0;aspect=fixed;outline=catching;symbol=message;" parent="cHXaKANqje5P_EdxZyNm-40" vertex="1">
          <mxGeometry x="3530" y="221.60000000000014" width="55" height="55" as="geometry" />
        </mxCell>
        <mxCell id="c8lWVxjifEEdm04KX2j0-58" value="&lt;span style=&quot;font-size: 10px;&quot;&gt;Отправляет контакты благотворителю&lt;/span&gt;" style="rounded=1;whiteSpace=wrap;html=1;shadow=0;labelBackgroundColor=none;strokeWidth=1;fontFamily=Verdana;fontSize=8;align=center;" parent="cHXaKANqje5P_EdxZyNm-40" vertex="1">
          <mxGeometry x="3740" y="215.06999999999977" width="130" height="68.06" as="geometry" />
        </mxCell>
        <mxCell id="c8lWVxjifEEdm04KX2j0-59" value="&lt;span style=&quot;font-size: 10px;&quot;&gt;Отправляет контакты, оплачивает доставку&lt;/span&gt;" style="rounded=1;whiteSpace=wrap;html=1;shadow=0;labelBackgroundColor=none;strokeWidth=1;fontFamily=Verdana;fontSize=8;align=center;" parent="cHXaKANqje5P_EdxZyNm-40" vertex="1">
          <mxGeometry x="3820" y="343.4699999999998" width="130" height="68.06" as="geometry" />
        </mxCell>
        <mxCell id="c8lWVxjifEEdm04KX2j0-60" value="" style="points=[[0.25,0.25,0],[0.5,0,0],[0.75,0.25,0],[1,0.5,0],[0.75,0.75,0],[0.5,1,0],[0.25,0.75,0],[0,0.5,0]];shape=mxgraph.bpmn.gateway2;html=1;verticalLabelPosition=bottom;labelBackgroundColor=#ffffff;verticalAlign=top;align=center;perimeter=rhombusPerimeter;outlineConnect=0;outline=none;symbol=none;gwType=exclusive;" parent="cHXaKANqje5P_EdxZyNm-40" vertex="1">
          <mxGeometry x="3980" y="271.87" width="50" height="50" as="geometry" />
        </mxCell>
        <mxCell id="c8lWVxjifEEdm04KX2j0-61" value="" style="endArrow=classic;html=1;rounded=0;entryX=0.5;entryY=0;entryDx=0;entryDy=0;entryPerimeter=0;exitX=1;exitY=0.5;exitDx=0;exitDy=0;" parent="cHXaKANqje5P_EdxZyNm-40" source="c8lWVxjifEEdm04KX2j0-58" target="c8lWVxjifEEdm04KX2j0-60" edge="1">
          <mxGeometry width="50" height="50" relative="1" as="geometry">
            <mxPoint x="3850" y="204.50000000000009" as="sourcePoint" />
            <mxPoint x="3990" y="242.84" as="targetPoint" />
            <Array as="points">
              <mxPoint x="4005" y="249" />
            </Array>
          </mxGeometry>
        </mxCell>
        <mxCell id="c8lWVxjifEEdm04KX2j0-62" value="" style="endArrow=classic;html=1;rounded=0;entryX=0.5;entryY=1;entryDx=0;entryDy=0;entryPerimeter=0;" parent="cHXaKANqje5P_EdxZyNm-40" edge="1">
          <mxGeometry width="50" height="50" relative="1" as="geometry">
            <mxPoint x="3950" y="381.46" as="sourcePoint" />
            <mxPoint x="4005" y="316.86999999999995" as="targetPoint" />
            <Array as="points">
              <mxPoint x="4005" y="381.90000000000003" />
            </Array>
          </mxGeometry>
        </mxCell>
        <mxCell id="c8lWVxjifEEdm04KX2j0-63" value="" style="endArrow=classic;html=1;rounded=0;entryX=0;entryY=0.507;entryDx=0;entryDy=0;entryPerimeter=0;exitX=1;exitY=0.5;exitDx=0;exitDy=0;exitPerimeter=0;" parent="cHXaKANqje5P_EdxZyNm-40" source="c8lWVxjifEEdm04KX2j0-54" target="c8lWVxjifEEdm04KX2j0-58" edge="1">
          <mxGeometry width="50" height="50" relative="1" as="geometry">
            <mxPoint x="3585" y="220.34" as="sourcePoint" />
            <mxPoint x="3710" y="220.34" as="targetPoint" />
          </mxGeometry>
        </mxCell>
        <mxCell id="cHXaKANqje5P_EdxZyNm-75" value="" style="endArrow=classic;html=1;rounded=0;exitX=1;exitY=0.5;exitDx=0;exitDy=0;exitPerimeter=0;entryX=0;entryY=0.5;entryDx=0;entryDy=0;" parent="cHXaKANqje5P_EdxZyNm-40" source="c8lWVxjifEEdm04KX2j0-50" target="c8lWVxjifEEdm04KX2j0-59" edge="1">
          <mxGeometry width="50" height="50" relative="1" as="geometry">
            <mxPoint x="3475" y="350.34000000000026" as="sourcePoint" />
            <mxPoint x="3730" y="350.33999999999935" as="targetPoint" />
          </mxGeometry>
        </mxCell>
        <mxCell id="cHXaKANqje5P_EdxZyNm-128" value="" style="endArrow=classic;html=1;rounded=0;exitX=0.409;exitY=0.043;exitDx=0;exitDy=0;exitPerimeter=0;" parent="cHXaKANqje5P_EdxZyNm-40" source="cHXaKANqje5P_EdxZyNm-24" edge="1">
          <mxGeometry width="50" height="50" relative="1" as="geometry">
            <mxPoint x="4222.5" y="414.8499999999999" as="sourcePoint" />
            <mxPoint x="4220" y="280" as="targetPoint" />
            <Array as="points" />
          </mxGeometry>
        </mxCell>
        <mxCell id="cHXaKANqje5P_EdxZyNm-79" value="" style="points=[[0.145,0.145,0],[0.5,0,0],[0.855,0.145,0],[1,0.5,0],[0.855,0.855,0],[0.5,1,0],[0.145,0.855,0],[0,0.5,0]];shape=mxgraph.bpmn.event;html=1;verticalLabelPosition=bottom;labelBackgroundColor=#ffffff;verticalAlign=top;align=center;perimeter=ellipsePerimeter;outlineConnect=0;aspect=fixed;outline=catching;symbol=message;" parent="cHXaKANqje5P_EdxZyNm-40" vertex="1">
          <mxGeometry x="4200" y="228.13000000000002" width="55" height="55" as="geometry" />
        </mxCell>
        <mxCell id="cHXaKANqje5P_EdxZyNm-80" value="Информация о поступлении&lt;div&gt;денежных средств на счет фонда&lt;/div&gt;" style="text;html=1;align=center;verticalAlign=middle;resizable=0;points=[];autosize=1;strokeColor=none;fillColor=none;" parent="cHXaKANqje5P_EdxZyNm-40" vertex="1">
          <mxGeometry x="4130" y="178.82000000000002" width="210" height="40" as="geometry" />
        </mxCell>
        <mxCell id="cHXaKANqje5P_EdxZyNm-82" value="&lt;span style=&quot;font-size: 10px;&quot;&gt;Распределяет деньги между семьями&lt;/span&gt;" style="rounded=1;whiteSpace=wrap;html=1;shadow=0;labelBackgroundColor=none;strokeWidth=1;fontFamily=Verdana;fontSize=8;align=center;" parent="cHXaKANqje5P_EdxZyNm-40" vertex="1">
          <mxGeometry x="4320" y="226.19" width="120" height="55" as="geometry" />
        </mxCell>
        <mxCell id="cHXaKANqje5P_EdxZyNm-83" value="" style="endArrow=classic;html=1;rounded=0;" parent="cHXaKANqje5P_EdxZyNm-40" edge="1">
          <mxGeometry width="50" height="50" relative="1" as="geometry">
            <mxPoint x="4255" y="252.31000000000003" as="sourcePoint" />
            <mxPoint x="4320" y="252.16" as="targetPoint" />
          </mxGeometry>
        </mxCell>
        <mxCell id="cHXaKANqje5P_EdxZyNm-84" value="" style="endArrow=classic;html=1;rounded=0;" parent="cHXaKANqje5P_EdxZyNm-40" edge="1">
          <mxGeometry width="50" height="50" relative="1" as="geometry">
            <mxPoint x="4440" y="253.34000000000003" as="sourcePoint" />
            <mxPoint x="4500" y="253.19" as="targetPoint" />
          </mxGeometry>
        </mxCell>
        <mxCell id="cHXaKANqje5P_EdxZyNm-81" value="&lt;span style=&quot;font-size: 10px;&quot;&gt;Отправляет посылку семье&lt;/span&gt;" style="rounded=1;whiteSpace=wrap;html=1;shadow=0;labelBackgroundColor=none;strokeWidth=1;fontFamily=Verdana;fontSize=8;align=center;" parent="cHXaKANqje5P_EdxZyNm-40" vertex="1">
          <mxGeometry x="4680" y="228.13000000000002" width="120" height="55" as="geometry" />
        </mxCell>
        <mxCell id="c8lWVxjifEEdm04KX2j0-67" value="" style="endArrow=classic;html=1;rounded=0;exitX=0.5;exitY=0;exitDx=0;exitDy=0;exitPerimeter=0;" parent="cHXaKANqje5P_EdxZyNm-40" source="c8lWVxjifEEdm04KX2j0-47" edge="1">
          <mxGeometry width="50" height="50" relative="1" as="geometry">
            <mxPoint x="3375" y="40" as="sourcePoint" />
            <mxPoint x="3840" y="100" as="targetPoint" />
            <Array as="points">
              <mxPoint x="3348" y="100" />
            </Array>
          </mxGeometry>
        </mxCell>
        <mxCell id="c8lWVxjifEEdm04KX2j0-68" value="&lt;span style=&quot;font-size: 10px;&quot;&gt;Закупает продкуты/вещи для семьи, на которую перевели деньги&lt;/span&gt;" style="rounded=1;whiteSpace=wrap;html=1;shadow=0;labelBackgroundColor=none;strokeWidth=1;fontFamily=Verdana;fontSize=8;align=center;" parent="cHXaKANqje5P_EdxZyNm-40" vertex="1">
          <mxGeometry x="4190" y="60.48000000000012" width="120" height="55" as="geometry" />
        </mxCell>
        <mxCell id="c8lWVxjifEEdm04KX2j0-134" value="&lt;span style=&quot;font-size: 10px;&quot;&gt;Отправляет посылку семье, на которую перевели деньги&lt;/span&gt;" style="rounded=1;whiteSpace=wrap;html=1;shadow=0;labelBackgroundColor=none;strokeWidth=1;fontFamily=Verdana;fontSize=8;align=center;" parent="cHXaKANqje5P_EdxZyNm-40" vertex="1">
          <mxGeometry x="4390" y="64.79000000000002" width="120" height="55" as="geometry" />
        </mxCell>
        <mxCell id="c8lWVxjifEEdm04KX2j0-135" value="&lt;span style=&quot;font-size: 10px;&quot;&gt;Закупает продкуты/вещи&lt;/span&gt;" style="rounded=1;whiteSpace=wrap;html=1;shadow=0;labelBackgroundColor=none;strokeWidth=1;fontFamily=Verdana;fontSize=8;align=center;" parent="cHXaKANqje5P_EdxZyNm-40" vertex="1">
          <mxGeometry x="4500" y="228.1300000000001" width="120" height="55" as="geometry" />
        </mxCell>
        <mxCell id="c8lWVxjifEEdm04KX2j0-136" value="" style="endArrow=classic;html=1;rounded=0;entryX=0;entryY=0.5;entryDx=0;entryDy=0;" parent="cHXaKANqje5P_EdxZyNm-40" target="cHXaKANqje5P_EdxZyNm-81" edge="1">
          <mxGeometry width="50" height="50" relative="1" as="geometry">
            <mxPoint x="4620" y="255.48000000000002" as="sourcePoint" />
            <mxPoint x="4670" y="205.48000000000002" as="targetPoint" />
          </mxGeometry>
        </mxCell>
        <mxCell id="c8lWVxjifEEdm04KX2j0-138" value="" style="points=[[0.25,0.25,0],[0.5,0,0],[0.75,0.25,0],[1,0.5,0],[0.75,0.75,0],[0.5,1,0],[0.25,0.75,0],[0,0.5,0]];shape=mxgraph.bpmn.gateway2;html=1;verticalLabelPosition=bottom;labelBackgroundColor=#ffffff;verticalAlign=top;align=center;perimeter=rhombusPerimeter;outlineConnect=0;outline=none;symbol=none;gwType=exclusive;" parent="cHXaKANqje5P_EdxZyNm-40" vertex="1">
          <mxGeometry x="3840" y="75.48000000000025" width="50" height="50" as="geometry" />
        </mxCell>
        <mxCell id="c8lWVxjifEEdm04KX2j0-139" value="Хватает денег&amp;nbsp;&lt;div&gt;для закупки&lt;/div&gt;&lt;div&gt;&amp;nbsp;проуктов&lt;span style=&quot;background-color: transparent; color: light-dark(rgb(0, 0, 0), rgb(255, 255, 255));&quot;&gt;/вещей?&lt;/span&gt;&lt;/div&gt;" style="text;html=1;align=center;verticalAlign=middle;resizable=0;points=[];autosize=1;strokeColor=none;fillColor=none;" parent="cHXaKANqje5P_EdxZyNm-40" vertex="1">
          <mxGeometry x="3690" y="40.00000000000002" width="120" height="60" as="geometry" />
        </mxCell>
        <mxCell id="c8lWVxjifEEdm04KX2j0-143" value="" style="endArrow=classic;html=1;rounded=0;exitX=0.5;exitY=0;exitDx=0;exitDy=0;exitPerimeter=0;entryX=0.5;entryY=0;entryDx=0;entryDy=0;entryPerimeter=0;" parent="cHXaKANqje5P_EdxZyNm-40" source="c8lWVxjifEEdm04KX2j0-138" target="c8lWVxjifEEdm04KX2j0-149" edge="1">
          <mxGeometry width="50" height="50" relative="1" as="geometry">
            <mxPoint x="3860" y="67.98000000000002" as="sourcePoint" />
            <mxPoint x="3960" y="30" as="targetPoint" />
            <Array as="points">
              <mxPoint x="3865" y="30" />
              <mxPoint x="4105" y="30" />
            </Array>
          </mxGeometry>
        </mxCell>
        <mxCell id="c8lWVxjifEEdm04KX2j0-144" value="" style="endArrow=classic;html=1;rounded=0;exitX=0.5;exitY=1;exitDx=0;exitDy=0;exitPerimeter=0;" parent="cHXaKANqje5P_EdxZyNm-40" source="c8lWVxjifEEdm04KX2j0-138" edge="1">
          <mxGeometry width="50" height="50" relative="1" as="geometry">
            <mxPoint x="3880" y="135.81999999999994" as="sourcePoint" />
            <mxPoint x="3940" y="170" as="targetPoint" />
            <Array as="points">
              <mxPoint x="3865" y="170" />
            </Array>
          </mxGeometry>
        </mxCell>
        <mxCell id="c8lWVxjifEEdm04KX2j0-147" value="&lt;span style=&quot;font-size: 10px;&quot;&gt;Ожидает, пока необходимая сумму будет собрана&lt;/span&gt;" style="rounded=1;whiteSpace=wrap;html=1;shadow=0;labelBackgroundColor=none;strokeWidth=1;fontFamily=Verdana;fontSize=8;align=center;" parent="cHXaKANqje5P_EdxZyNm-40" vertex="1">
          <mxGeometry x="3940" y="145.0000000000001" width="120" height="55" as="geometry" />
        </mxCell>
        <mxCell id="c8lWVxjifEEdm04KX2j0-148" value="" style="endArrow=classic;html=1;rounded=0;entryX=0.5;entryY=1;entryDx=0;entryDy=0;entryPerimeter=0;" parent="cHXaKANqje5P_EdxZyNm-40" target="c8lWVxjifEEdm04KX2j0-149" edge="1">
          <mxGeometry width="50" height="50" relative="1" as="geometry">
            <mxPoint x="4060" y="173.53999999999996" as="sourcePoint" />
            <mxPoint x="4110" y="123.53999999999996" as="targetPoint" />
            <Array as="points">
              <mxPoint x="4105" y="174" />
            </Array>
          </mxGeometry>
        </mxCell>
        <mxCell id="c8lWVxjifEEdm04KX2j0-149" value="" style="points=[[0.25,0.25,0],[0.5,0,0],[0.75,0.25,0],[1,0.5,0],[0.75,0.75,0],[0.5,1,0],[0.25,0.75,0],[0,0.5,0]];shape=mxgraph.bpmn.gateway2;html=1;verticalLabelPosition=bottom;labelBackgroundColor=#ffffff;verticalAlign=top;align=center;perimeter=rhombusPerimeter;outlineConnect=0;outline=none;symbol=none;gwType=exclusive;" parent="cHXaKANqje5P_EdxZyNm-40" vertex="1">
          <mxGeometry x="4080" y="60.480000000000246" width="50" height="50" as="geometry" />
        </mxCell>
        <mxCell id="c8lWVxjifEEdm04KX2j0-150" value="" style="endArrow=classic;html=1;rounded=0;entryX=0;entryY=0.5;entryDx=0;entryDy=0;exitX=1;exitY=0.5;exitDx=0;exitDy=0;exitPerimeter=0;" parent="cHXaKANqje5P_EdxZyNm-40" source="c8lWVxjifEEdm04KX2j0-149" target="c8lWVxjifEEdm04KX2j0-68" edge="1">
          <mxGeometry width="50" height="50" relative="1" as="geometry">
            <mxPoint x="4130" y="90" as="sourcePoint" />
            <mxPoint x="4180" y="40" as="targetPoint" />
          </mxGeometry>
        </mxCell>
        <mxCell id="c8lWVxjifEEdm04KX2j0-151" value="" style="endArrow=classic;html=1;rounded=0;entryX=0;entryY=0.5;entryDx=0;entryDy=0;" parent="cHXaKANqje5P_EdxZyNm-40" target="c8lWVxjifEEdm04KX2j0-134" edge="1">
          <mxGeometry width="50" height="50" relative="1" as="geometry">
            <mxPoint x="4310" y="92.5" as="sourcePoint" />
            <mxPoint x="4360" y="42.5" as="targetPoint" />
          </mxGeometry>
        </mxCell>
        <mxCell id="c8lWVxjifEEdm04KX2j0-153" value="" style="endArrow=classic;html=1;rounded=0;entryX=0.5;entryY=0;entryDx=0;entryDy=0;entryPerimeter=0;" parent="cHXaKANqje5P_EdxZyNm-40" target="cHXaKANqje5P_EdxZyNm-38" edge="1">
          <mxGeometry width="50" height="50" relative="1" as="geometry">
            <mxPoint x="4510" y="95" as="sourcePoint" />
            <mxPoint x="4560" y="45" as="targetPoint" />
            <Array as="points">
              <mxPoint x="4900" y="95" />
            </Array>
          </mxGeometry>
        </mxCell>
        <mxCell id="cHXaKANqje5P_EdxZyNm-113" value="" style="points=[[0.145,0.145,0],[0.5,0,0],[0.855,0.145,0],[1,0.5,0],[0.855,0.855,0],[0.5,1,0],[0.145,0.855,0],[0,0.5,0]];shape=mxgraph.bpmn.event;html=1;verticalLabelPosition=bottom;labelBackgroundColor=#ffffff;verticalAlign=top;align=center;perimeter=ellipsePerimeter;outlineConnect=0;aspect=fixed;outline=catching;symbol=message;" parent="cHXaKANqje5P_EdxZyNm-40" vertex="1">
          <mxGeometry x="5286" y="276.6000000000001" width="55" height="55" as="geometry" />
        </mxCell>
        <mxCell id="cHXaKANqje5P_EdxZyNm-114" value="Получает видеоотчет" style="text;html=1;align=center;verticalAlign=middle;resizable=0;points=[];autosize=1;strokeColor=none;fillColor=none;" parent="cHXaKANqje5P_EdxZyNm-40" vertex="1">
          <mxGeometry x="5243.5" y="338.13" width="140" height="30" as="geometry" />
        </mxCell>
        <mxCell id="cHXaKANqje5P_EdxZyNm-85" value="&lt;span style=&quot;font-size: 10px;&quot;&gt;Публикуют&amp;nbsp;&lt;/span&gt;&lt;div&gt;&lt;span style=&quot;font-size: 10px;&quot;&gt;видеоотчет&amp;nbsp;&lt;/span&gt;&lt;/div&gt;" style="rounded=1;whiteSpace=wrap;html=1;shadow=0;labelBackgroundColor=none;strokeWidth=1;fontFamily=Verdana;fontSize=8;align=center;" parent="cHXaKANqje5P_EdxZyNm-40" vertex="1">
          <mxGeometry x="5405" y="271.94000000000005" width="130" height="68.06" as="geometry" />
        </mxCell>
        <mxCell id="cHXaKANqje5P_EdxZyNm-87" value="" style="endArrow=classic;html=1;rounded=0;" parent="cHXaKANqje5P_EdxZyNm-40" edge="1">
          <mxGeometry width="50" height="50" relative="1" as="geometry">
            <mxPoint x="5535" y="301.53" as="sourcePoint" />
            <mxPoint x="5575" y="301.59000000000003" as="targetPoint" />
          </mxGeometry>
        </mxCell>
        <mxCell id="cHXaKANqje5P_EdxZyNm-115" value="" style="endArrow=classic;html=1;rounded=0;" parent="cHXaKANqje5P_EdxZyNm-40" edge="1">
          <mxGeometry width="50" height="50" relative="1" as="geometry">
            <mxPoint x="5340" y="304.17999999999995" as="sourcePoint" />
            <mxPoint x="5405" y="304.12" as="targetPoint" />
          </mxGeometry>
        </mxCell>
        <mxCell id="cHXaKANqje5P_EdxZyNm-121" value="" style="endArrow=classic;html=1;rounded=0;entryX=0.5;entryY=1;entryDx=0;entryDy=0;entryPerimeter=0;" parent="cHXaKANqje5P_EdxZyNm-40" target="cHXaKANqje5P_EdxZyNm-120" edge="1">
          <mxGeometry width="50" height="50" relative="1" as="geometry">
            <mxPoint x="5636.82" y="270.5" as="sourcePoint" />
            <mxPoint x="5639.33" y="-12.880000000000052" as="targetPoint" />
          </mxGeometry>
        </mxCell>
        <mxCell id="cHXaKANqje5P_EdxZyNm-86" value="&lt;span style=&quot;font-size: 10px;&quot;&gt;Обновляет информацию&amp;nbsp; в карточке семьи&lt;/span&gt;" style="rounded=1;whiteSpace=wrap;html=1;shadow=0;labelBackgroundColor=none;strokeWidth=1;fontFamily=Verdana;fontSize=8;align=center;" parent="cHXaKANqje5P_EdxZyNm-40" vertex="1">
          <mxGeometry x="5573.08" y="270.07000000000005" width="130" height="68.06" as="geometry" />
        </mxCell>
        <mxCell id="cHXaKANqje5P_EdxZyNm-90" value="Семья нуждающаяся в помощи" style="swimlane;startSize=20;horizontal=0;html=1;whiteSpace=wrap;strokeWidth=1;fillColor=none;" parent="1" vertex="1">
          <mxGeometry x="90" y="350" width="6210" height="340" as="geometry" />
        </mxCell>
        <mxCell id="cHXaKANqje5P_EdxZyNm-91" value="" style="points=[[0.145,0.145,0],[0.5,0,0],[0.855,0.145,0],[1,0.5,0],[0.855,0.855,0],[0.5,1,0],[0.145,0.855,0],[0,0.5,0]];shape=mxgraph.bpmn.event;html=1;verticalLabelPosition=bottom;labelBackgroundColor=#ffffff;verticalAlign=top;align=center;perimeter=ellipsePerimeter;outlineConnect=0;aspect=fixed;outline=standard;symbol=general;" parent="cHXaKANqje5P_EdxZyNm-90" vertex="1">
          <mxGeometry x="70" y="98.88" width="50" height="50" as="geometry" />
        </mxCell>
        <mxCell id="cHXaKANqje5P_EdxZyNm-92" value="Возникла потребность&lt;div&gt;в помощи&lt;/div&gt;" style="text;html=1;align=center;verticalAlign=middle;resizable=0;points=[];autosize=1;strokeColor=none;fillColor=none;" parent="cHXaKANqje5P_EdxZyNm-90" vertex="1">
          <mxGeometry x="30" y="168.88" width="150" height="40" as="geometry" />
        </mxCell>
        <mxCell id="cHXaKANqje5P_EdxZyNm-93" value="" style="endArrow=classic;html=1;rounded=0;" parent="cHXaKANqje5P_EdxZyNm-90" edge="1">
          <mxGeometry width="50" height="50" relative="1" as="geometry">
            <mxPoint x="120" y="128.88" as="sourcePoint" />
            <mxPoint x="160" y="128.52999999999997" as="targetPoint" />
          </mxGeometry>
        </mxCell>
        <mxCell id="cHXaKANqje5P_EdxZyNm-94" value="&lt;span style=&quot;font-size: 10px;&quot;&gt;Заходит на сайт фонда &quot;Помоги лично&quot;&lt;/span&gt;" style="rounded=1;whiteSpace=wrap;html=1;shadow=0;labelBackgroundColor=none;strokeWidth=1;fontFamily=Verdana;fontSize=8;align=center;" parent="cHXaKANqje5P_EdxZyNm-90" vertex="1">
          <mxGeometry x="160" y="95" width="90" height="68.88" as="geometry" />
        </mxCell>
        <mxCell id="cHXaKANqje5P_EdxZyNm-95" value="&lt;span style=&quot;font-size: 10px;&quot;&gt;Заполняет форму на сайте в разделе &quot;Получить помощь&quot;&amp;nbsp;&lt;/span&gt;" style="rounded=1;whiteSpace=wrap;html=1;shadow=0;labelBackgroundColor=none;strokeWidth=1;fontFamily=Verdana;fontSize=8;align=center;" parent="cHXaKANqje5P_EdxZyNm-90" vertex="1">
          <mxGeometry x="300" y="95" width="90" height="68.88" as="geometry" />
        </mxCell>
        <mxCell id="cHXaKANqje5P_EdxZyNm-96" value="" style="endArrow=classic;html=1;rounded=0;" parent="cHXaKANqje5P_EdxZyNm-90" edge="1">
          <mxGeometry width="50" height="50" relative="1" as="geometry">
            <mxPoint x="250" y="127.05999999999999" as="sourcePoint" />
            <mxPoint x="300" y="127.52999999999997" as="targetPoint" />
          </mxGeometry>
        </mxCell>
        <mxCell id="cHXaKANqje5P_EdxZyNm-100" value="" style="endArrow=classic;html=1;rounded=0;" parent="cHXaKANqje5P_EdxZyNm-90" edge="1">
          <mxGeometry width="50" height="50" relative="1" as="geometry">
            <mxPoint x="550" y="128.87999999999997" as="sourcePoint" />
            <mxPoint x="610" y="129.52999999999997" as="targetPoint" />
          </mxGeometry>
        </mxCell>
        <mxCell id="cHXaKANqje5P_EdxZyNm-101" value="&lt;span style=&quot;font-size: 10px;&quot;&gt;Прикрепляет подтверждающие документы (документы, видео)&lt;/span&gt;" style="rounded=1;whiteSpace=wrap;html=1;shadow=0;labelBackgroundColor=none;strokeWidth=1;fontFamily=Verdana;fontSize=8;align=center;" parent="cHXaKANqje5P_EdxZyNm-90" vertex="1">
          <mxGeometry x="450" y="95" width="100" height="68.88" as="geometry" />
        </mxCell>
        <mxCell id="cHXaKANqje5P_EdxZyNm-102" value="" style="endArrow=classic;html=1;rounded=0;entryX=0;entryY=0.5;entryDx=0;entryDy=0;" parent="cHXaKANqje5P_EdxZyNm-90" target="cHXaKANqje5P_EdxZyNm-101" edge="1">
          <mxGeometry width="50" height="50" relative="1" as="geometry">
            <mxPoint x="390" y="128.88" as="sourcePoint" />
            <mxPoint x="440" y="129.35000000000002" as="targetPoint" />
          </mxGeometry>
        </mxCell>
        <mxCell id="cHXaKANqje5P_EdxZyNm-103" value="&lt;span style=&quot;font-size: 10px;&quot;&gt;Отправляет заявку&lt;/span&gt;" style="rounded=1;whiteSpace=wrap;html=1;shadow=0;labelBackgroundColor=none;strokeWidth=1;fontFamily=Verdana;fontSize=8;align=center;" parent="cHXaKANqje5P_EdxZyNm-90" vertex="1">
          <mxGeometry x="610" y="95.00000000000003" width="100" height="68.88" as="geometry" />
        </mxCell>
        <mxCell id="c8lWVxjifEEdm04KX2j0-4" value="" style="points=[[0.145,0.145,0],[0.5,0,0],[0.855,0.145,0],[1,0.5,0],[0.855,0.855,0],[0.5,1,0],[0.145,0.855,0],[0,0.5,0]];shape=mxgraph.bpmn.event;html=1;verticalLabelPosition=bottom;labelBackgroundColor=#ffffff;verticalAlign=top;align=center;perimeter=ellipsePerimeter;outlineConnect=0;aspect=fixed;outline=catching;symbol=message;" parent="cHXaKANqje5P_EdxZyNm-90" vertex="1">
          <mxGeometry x="760" y="113.88" width="55" height="55" as="geometry" />
        </mxCell>
        <mxCell id="c8lWVxjifEEdm04KX2j0-5" value="Оповещение&amp;nbsp;&lt;div&gt;&quot;Заявка принята&lt;div&gt;в работу&lt;/div&gt;&lt;/div&gt;" style="text;html=1;align=center;verticalAlign=middle;resizable=0;points=[];autosize=1;strokeColor=none;fillColor=none;" parent="cHXaKANqje5P_EdxZyNm-90" vertex="1">
          <mxGeometry x="737" y="39.53" width="120" height="60" as="geometry" />
        </mxCell>
        <mxCell id="cHXaKANqje5P_EdxZyNm-97" value="" style="points=[[0.145,0.145,0],[0.5,0,0],[0.855,0.145,0],[1,0.5,0],[0.855,0.855,0],[0.5,1,0],[0.145,0.855,0],[0,0.5,0]];shape=mxgraph.bpmn.event;html=1;verticalLabelPosition=bottom;labelBackgroundColor=#ffffff;verticalAlign=top;align=center;perimeter=ellipsePerimeter;outlineConnect=0;aspect=fixed;outline=catching;symbol=message;" parent="cHXaKANqje5P_EdxZyNm-90" vertex="1">
          <mxGeometry x="1397.5" y="69.53" width="55" height="55" as="geometry" />
        </mxCell>
        <mxCell id="cHXaKANqje5P_EdxZyNm-105" value="\" style="points=[[0.25,0.25,0],[0.5,0,0],[0.75,0.25,0],[1,0.5,0],[0.75,0.75,0],[0.5,1,0],[0.25,0.75,0],[0,0.5,0]];shape=mxgraph.bpmn.gateway2;html=1;verticalLabelPosition=bottom;labelBackgroundColor=#ffffff;verticalAlign=top;align=center;perimeter=rhombusPerimeter;outlineConnect=0;outline=none;symbol=none;gwType=exclusive;" parent="cHXaKANqje5P_EdxZyNm-90" vertex="1">
          <mxGeometry x="1514" y="72.03000000000003" width="50" height="50" as="geometry" />
        </mxCell>
        <mxCell id="cHXaKANqje5P_EdxZyNm-111" value="" style="endArrow=classic;html=1;rounded=0;entryX=0;entryY=0.5;entryDx=0;entryDy=0;entryPerimeter=0;" parent="cHXaKANqje5P_EdxZyNm-90" source="cHXaKANqje5P_EdxZyNm-97" target="cHXaKANqje5P_EdxZyNm-105" edge="1">
          <mxGeometry width="50" height="50" relative="1" as="geometry">
            <mxPoint x="1460" y="168" as="sourcePoint" />
            <mxPoint x="1540" y="168.23000000000008" as="targetPoint" />
          </mxGeometry>
        </mxCell>
        <mxCell id="cHXaKANqje5P_EdxZyNm-98" value="Запрос на недостающие&amp;nbsp;&lt;div&gt;документы и материла&lt;/div&gt;" style="text;html=1;align=center;verticalAlign=middle;resizable=0;points=[];autosize=1;strokeColor=none;fillColor=none;" parent="cHXaKANqje5P_EdxZyNm-90" vertex="1">
          <mxGeometry x="1345" y="19.53000000000003" width="160" height="40" as="geometry" />
        </mxCell>
        <mxCell id="cHXaKANqje5P_EdxZyNm-109" value="Нет" style="text;html=1;align=center;verticalAlign=middle;resizable=0;points=[];autosize=1;strokeColor=none;fillColor=none;" parent="cHXaKANqje5P_EdxZyNm-90" vertex="1">
          <mxGeometry x="1490" y="9.529999999999944" width="40" height="30" as="geometry" />
        </mxCell>
        <mxCell id="cHXaKANqje5P_EdxZyNm-110" value="Предоставить&lt;div&gt;документы?&lt;/div&gt;" style="text;html=1;align=center;verticalAlign=middle;resizable=0;points=[];autosize=1;strokeColor=none;fillColor=none;" parent="cHXaKANqje5P_EdxZyNm-90" vertex="1">
          <mxGeometry x="1440" y="121.38000000000005" width="100" height="40" as="geometry" />
        </mxCell>
        <mxCell id="cHXaKANqje5P_EdxZyNm-108" value="Да" style="text;html=1;align=center;verticalAlign=middle;resizable=0;points=[];autosize=1;strokeColor=none;fillColor=none;" parent="cHXaKANqje5P_EdxZyNm-90" vertex="1">
          <mxGeometry x="1490" y="178.87999999999997" width="40" height="30" as="geometry" />
        </mxCell>
        <mxCell id="cHXaKANqje5P_EdxZyNm-116" value="" style="points=[[0.145,0.145,0],[0.5,0,0],[0.855,0.145,0],[1,0.5,0],[0.855,0.855,0],[0.5,1,0],[0.145,0.855,0],[0,0.5,0]];shape=mxgraph.bpmn.event;html=1;verticalLabelPosition=bottom;labelBackgroundColor=#ffffff;verticalAlign=top;align=center;perimeter=ellipsePerimeter;outlineConnect=0;aspect=fixed;outline=catching;symbol=message;" parent="cHXaKANqje5P_EdxZyNm-90" vertex="1">
          <mxGeometry x="5070" y="148.8800000000001" width="55" height="55" as="geometry" />
        </mxCell>
        <mxCell id="cHXaKANqje5P_EdxZyNm-117" value="Получает посылку" style="text;html=1;align=center;verticalAlign=middle;resizable=0;points=[];autosize=1;strokeColor=none;fillColor=none;" parent="cHXaKANqje5P_EdxZyNm-90" vertex="1">
          <mxGeometry x="5020" y="108.88" width="130" height="30" as="geometry" />
        </mxCell>
        <mxCell id="cHXaKANqje5P_EdxZyNm-118" value="&lt;span style=&quot;font-size: 10px;&quot;&gt;Отправляет видеоотчет&lt;/span&gt;&lt;div&gt;&lt;span style=&quot;font-size: 10px;&quot;&gt;с распаковкой&lt;/span&gt;&lt;/div&gt;" style="rounded=1;whiteSpace=wrap;html=1;shadow=0;labelBackgroundColor=none;strokeWidth=1;fontFamily=Verdana;fontSize=8;align=center;" parent="cHXaKANqje5P_EdxZyNm-90" vertex="1">
          <mxGeometry x="5248.5" y="140.82" width="130" height="68.06" as="geometry" />
        </mxCell>
        <mxCell id="cHXaKANqje5P_EdxZyNm-119" value="" style="endArrow=classic;html=1;rounded=0;entryX=0;entryY=0.5;entryDx=0;entryDy=0;exitX=1;exitY=0.5;exitDx=0;exitDy=0;exitPerimeter=0;" parent="cHXaKANqje5P_EdxZyNm-90" source="cHXaKANqje5P_EdxZyNm-116" target="cHXaKANqje5P_EdxZyNm-118" edge="1">
          <mxGeometry width="50" height="50" relative="1" as="geometry">
            <mxPoint x="5125" y="169" as="sourcePoint" />
            <mxPoint x="5190" y="169.12" as="targetPoint" />
          </mxGeometry>
        </mxCell>
        <mxCell id="cHXaKANqje5P_EdxZyNm-120" value="" style="points=[[0.145,0.145,0],[0.5,0,0],[0.855,0.145,0],[1,0.5,0],[0.855,0.855,0],[0.5,1,0],[0.145,0.855,0],[0,0.5,0]];shape=mxgraph.bpmn.event;html=1;verticalLabelPosition=bottom;labelBackgroundColor=#ffffff;verticalAlign=top;align=center;perimeter=ellipsePerimeter;outlineConnect=0;aspect=fixed;outline=end;symbol=terminate2;" parent="cHXaKANqje5P_EdxZyNm-90" vertex="1">
          <mxGeometry x="5610" y="138.88000000000002" width="46.15" height="46.15" as="geometry" />
        </mxCell>
        <mxCell id="cHXaKANqje5P_EdxZyNm-122" value="Помощь оказана" style="text;html=1;align=center;verticalAlign=middle;resizable=0;points=[];autosize=1;strokeColor=none;fillColor=none;" parent="cHXaKANqje5P_EdxZyNm-90" vertex="1">
          <mxGeometry x="5560" y="114.44000000000005" width="120" height="30" as="geometry" />
        </mxCell>
        <mxCell id="cHXaKANqje5P_EdxZyNm-126" value="&lt;b&gt;Оказание помощи на сайте благотворительного фонда&lt;/b&gt;" style="text;html=1;align=center;verticalAlign=middle;resizable=0;points=[];autosize=1;strokeColor=none;fillColor=none;rotation=0;" parent="1" vertex="1">
          <mxGeometry x="1580" y="310" width="350" height="30" as="geometry" />
        </mxCell>
        <mxCell id="c8lWVxjifEEdm04KX2j0-6" value="" style="endArrow=classic;html=1;rounded=0;exitX=1;exitY=0.5;exitDx=0;exitDy=0;exitPerimeter=0;entryX=0;entryY=0.5;entryDx=0;entryDy=0;entryPerimeter=0;" parent="1" source="c8lWVxjifEEdm04KX2j0-4" target="c8lWVxjifEEdm04KX2j0-7" edge="1">
          <mxGeometry width="50" height="50" relative="1" as="geometry">
            <mxPoint x="980" y="690" as="sourcePoint" />
            <mxPoint x="1105" y="870" as="targetPoint" />
            <Array as="points">
              <mxPoint x="1105" y="491" />
            </Array>
          </mxGeometry>
        </mxCell>
        <mxCell id="cHXaKANqje5P_EdxZyNm-104" value="" style="endArrow=classic;html=1;rounded=0;entryX=0.5;entryY=1;entryDx=0;entryDy=0;entryPerimeter=0;exitX=0.388;exitY=-0.028;exitDx=0;exitDy=0;exitPerimeter=0;" parent="1" source="cHXaKANqje5P_EdxZyNm-54" target="cHXaKANqje5P_EdxZyNm-97" edge="1">
          <mxGeometry width="50" height="50" relative="1" as="geometry">
            <mxPoint x="1508" y="800" as="sourcePoint" />
            <mxPoint x="1515" y="648.8199999999999" as="targetPoint" />
          </mxGeometry>
        </mxCell>
        <mxCell id="cHXaKANqje5P_EdxZyNm-89" value="" style="endArrow=classic;html=1;rounded=0;entryX=0.592;entryY=0.045;entryDx=0;entryDy=0;entryPerimeter=0;" parent="1" target="cHXaKANqje5P_EdxZyNm-2" edge="1">
          <mxGeometry width="50" height="50" relative="1" as="geometry">
            <mxPoint x="2397" y="960" as="sourcePoint" />
            <mxPoint x="2310" y="1068.82" as="targetPoint" />
          </mxGeometry>
        </mxCell>
        <mxCell id="cHXaKANqje5P_EdxZyNm-129" value="" style="endArrow=classic;html=1;rounded=0;entryX=0;entryY=0.5;entryDx=0;entryDy=0;entryPerimeter=0;exitX=0.5;exitY=1;exitDx=0;exitDy=0;" parent="1" source="cHXaKANqje5P_EdxZyNm-81" target="cHXaKANqje5P_EdxZyNm-38" edge="1">
          <mxGeometry width="50" height="50" relative="1" as="geometry">
            <mxPoint x="6180" y="985.1500000000001" as="sourcePoint" />
            <mxPoint x="6260" y="985.1500000000001" as="targetPoint" />
            <Array as="points">
              <mxPoint x="4830" y="1345" />
            </Array>
          </mxGeometry>
        </mxCell>
        <mxCell id="c8lWVxjifEEdm04KX2j0-57" value="" style="endArrow=classic;html=1;rounded=0;exitX=1;exitY=0.5;exitDx=0;exitDy=0;exitPerimeter=0;entryX=0.5;entryY=0;entryDx=0;entryDy=0;entryPerimeter=0;" parent="1" source="c8lWVxjifEEdm04KX2j0-60" target="c8lWVxjifEEdm04KX2j0-55" edge="1">
          <mxGeometry width="50" height="50" relative="1" as="geometry">
            <mxPoint x="4195.05" y="962.5006000000001" as="sourcePoint" />
            <mxPoint x="4170" y="1402.4999999999998" as="targetPoint" />
            <Array as="points">
              <mxPoint x="4178" y="987" />
            </Array>
          </mxGeometry>
        </mxCell>
        <mxCell id="cHXaKANqje5P_EdxZyNm-47" value="" style="endArrow=classic;html=1;rounded=0;exitX=0.5;exitY=1;exitDx=0;exitDy=0;" parent="1" source="cHXaKANqje5P_EdxZyNm-103" target="cHXaKANqje5P_EdxZyNm-41" edge="1">
          <mxGeometry width="50" height="50" relative="1" as="geometry">
            <mxPoint x="747.08" y="620" as="sourcePoint" />
            <mxPoint x="747.08" y="846.7700000000002" as="targetPoint" />
          </mxGeometry>
        </mxCell>
        <mxCell id="cHXaKANqje5P_EdxZyNm-107" value="" style="endArrow=classic;html=1;rounded=0;exitX=0.5;exitY=1;exitDx=0;exitDy=0;exitPerimeter=0;entryX=0;entryY=0.5;entryDx=0;entryDy=0;" parent="1" source="cHXaKANqje5P_EdxZyNm-105" target="cHXaKANqje5P_EdxZyNm-99" edge="1">
          <mxGeometry width="50" height="50" relative="1" as="geometry">
            <mxPoint x="1660" y="552.5" as="sourcePoint" />
            <mxPoint x="1735" y="582.5" as="targetPoint" />
            <Array as="points">
              <mxPoint x="1629" y="550" />
              <mxPoint x="1629" y="583" />
            </Array>
          </mxGeometry>
        </mxCell>
        <mxCell id="cHXaKANqje5P_EdxZyNm-106" value="" style="endArrow=classic;html=1;rounded=0;exitX=0.5;exitY=0;exitDx=0;exitDy=0;exitPerimeter=0;entryX=0.5;entryY=0;entryDx=0;entryDy=0;entryPerimeter=0;" parent="1" source="cHXaKANqje5P_EdxZyNm-105" target="cHXaKANqje5P_EdxZyNm-60" edge="1">
          <mxGeometry width="50" height="50" relative="1" as="geometry">
            <mxPoint x="1773" y="442.56" as="sourcePoint" />
            <mxPoint x="1695" y="800" as="targetPoint" />
            <Array as="points">
              <mxPoint x="1629" y="370" />
              <mxPoint x="1710" y="370" />
            </Array>
          </mxGeometry>
        </mxCell>
        <mxCell id="c8lWVxjifEEdm04KX2j0-145" value="Да" style="text;html=1;align=center;verticalAlign=middle;resizable=0;points=[];autosize=1;strokeColor=none;fillColor=none;" parent="1" vertex="1">
          <mxGeometry x="3910" y="698" width="40" height="30" as="geometry" />
        </mxCell>
        <mxCell id="c8lWVxjifEEdm04KX2j0-146" value="Нет" style="text;html=1;align=center;verticalAlign=middle;resizable=0;points=[];autosize=1;strokeColor=none;fillColor=none;" parent="1" vertex="1">
          <mxGeometry x="3910" y="838" width="40" height="30" as="geometry" />
        </mxCell>
        <mxCell id="cHXaKANqje5P_EdxZyNm-130" value="" style="endArrow=classic;html=1;rounded=0;exitX=1;exitY=0.5;exitDx=0;exitDy=0;exitPerimeter=0;entryX=0.5;entryY=1;entryDx=0;entryDy=0;entryPerimeter=0;" parent="1" source="cHXaKANqje5P_EdxZyNm-38" target="cHXaKANqje5P_EdxZyNm-116" edge="1">
          <mxGeometry width="50" height="50" relative="1" as="geometry">
            <mxPoint x="5680" y="1081.56" as="sourcePoint" />
            <mxPoint x="5740" y="1082.0299999999997" as="targetPoint" />
            <Array as="points">
              <mxPoint x="5190" y="1345" />
            </Array>
          </mxGeometry>
        </mxCell>
        <mxCell id="cHXaKANqje5P_EdxZyNm-112" value="" style="endArrow=classic;html=1;rounded=0;exitX=0.5;exitY=1;exitDx=0;exitDy=0;entryX=0.5;entryY=0;entryDx=0;entryDy=0;entryPerimeter=0;" parent="1" source="cHXaKANqje5P_EdxZyNm-118" target="cHXaKANqje5P_EdxZyNm-113" edge="1">
          <mxGeometry width="50" height="50" relative="1" as="geometry">
            <mxPoint x="6070" y="1137.06" as="sourcePoint" />
            <mxPoint x="5905" y="987.0600000000001" as="targetPoint" />
          </mxGeometry>
        </mxCell>
      </root>
    </mxGraphModel>
  </diagram>
  <diagram id="a_MtQb8EIC7jTFKh7wlv" name="BPMN заметки">
    <mxGraphModel dx="1618" dy="1132" grid="1" gridSize="10" guides="1" tooltips="1" connect="1" arrows="1" fold="1" page="1" pageScale="1" pageWidth="827" pageHeight="1169" math="0" shadow="0">
      <root>
        <mxCell id="0" />
        <mxCell id="1" parent="0" />
        <mxCell id="2qwUaoLeyyZQ_1UiVwgS-4" value="" style="edgeStyle=elbowEdgeStyle;fontSize=12;html=1;endArrow=blockThin;endFill=1;rounded=0;" parent="1" edge="1">
          <mxGeometry width="160" relative="1" as="geometry">
            <mxPoint x="400" y="120" as="sourcePoint" />
            <mxPoint x="520" y="120" as="targetPoint" />
          </mxGeometry>
        </mxCell>
        <mxCell id="2qwUaoLeyyZQ_1UiVwgS-6" value="" style="points=[[0.25,0,0],[0.5,0,0],[0.75,0,0],[1,0.25,0],[1,0.5,0],[1,0.75,0],[0.75,1,0],[0.5,1,0],[0.25,1,0],[0,0.75,0],[0,0.5,0],[0,0.25,0]];shape=mxgraph.bpmn.task;whiteSpace=wrap;rectStyle=rounded;size=10;html=1;taskMarker=abstract;fontSize=16;" parent="1" vertex="1">
          <mxGeometry x="20" y="190" width="90" height="50" as="geometry" />
        </mxCell>
        <mxCell id="2qwUaoLeyyZQ_1UiVwgS-7" value="" style="points=[[0.25,0,0],[0.5,0,0],[0.75,0,0],[1,0.25,0],[1,0.5,0],[1,0.75,0],[0.75,1,0],[0.5,1,0],[0.25,1,0],[0,0.75,0],[0,0.5,0],[0,0.25,0]];shape=mxgraph.bpmn.task;whiteSpace=wrap;rectStyle=rounded;size=10;html=1;taskMarker=abstract;isLoopSub=1;fontSize=16;" parent="1" vertex="1">
          <mxGeometry x="20" y="270" width="90" height="50" as="geometry" />
        </mxCell>
        <mxCell id="2qwUaoLeyyZQ_1UiVwgS-8" value="" style="points=[[0.145,0.145,0],[0.5,0,0],[0.855,0.145,0],[1,0.5,0],[0.855,0.855,0],[0.5,1,0],[0.145,0.855,0],[0,0.5,0]];shape=mxgraph.bpmn.event;html=1;verticalLabelPosition=bottom;labelBackgroundColor=#ffffff;verticalAlign=top;align=center;perimeter=ellipsePerimeter;outlineConnect=0;aspect=fixed;outline=standard;symbol=general;fontSize=16;" parent="1" vertex="1">
          <mxGeometry x="401" y="190" width="50" height="50" as="geometry" />
        </mxCell>
        <mxCell id="2qwUaoLeyyZQ_1UiVwgS-9" value="" style="points=[[0.145,0.145,0],[0.5,0,0],[0.855,0.145,0],[1,0.5,0],[0.855,0.855,0],[0.5,1,0],[0.145,0.855,0],[0,0.5,0]];shape=mxgraph.bpmn.event;html=1;verticalLabelPosition=bottom;labelBackgroundColor=#ffffff;verticalAlign=top;align=center;perimeter=ellipsePerimeter;outlineConnect=0;aspect=fixed;outline=throwing;symbol=general;fontSize=16;" parent="1" vertex="1">
          <mxGeometry x="401" y="270" width="50" height="50" as="geometry" />
        </mxCell>
        <mxCell id="2qwUaoLeyyZQ_1UiVwgS-10" value="" style="points=[[0.145,0.145,0],[0.5,0,0],[0.855,0.145,0],[1,0.5,0],[0.855,0.855,0],[0.5,1,0],[0.145,0.855,0],[0,0.5,0]];shape=mxgraph.bpmn.event;html=1;verticalLabelPosition=bottom;labelBackgroundColor=#ffffff;verticalAlign=top;align=center;perimeter=ellipsePerimeter;outlineConnect=0;aspect=fixed;outline=end;symbol=terminate2;fontSize=16;" parent="1" vertex="1">
          <mxGeometry x="401" y="350" width="50" height="50" as="geometry" />
        </mxCell>
        <mxCell id="2qwUaoLeyyZQ_1UiVwgS-11" value="" style="points=[[0.145,0.145,0],[0.5,0,0],[0.855,0.145,0],[1,0.5,0],[0.855,0.855,0],[0.5,1,0],[0.145,0.855,0],[0,0.5,0]];shape=mxgraph.bpmn.event;html=1;verticalLabelPosition=bottom;labelBackgroundColor=#ffffff;verticalAlign=top;align=center;perimeter=ellipsePerimeter;outlineConnect=0;aspect=fixed;outline=throwing;symbol=message;fontSize=16;" parent="1" vertex="1">
          <mxGeometry x="401" y="430" width="50" height="50" as="geometry" />
        </mxCell>
        <mxCell id="2qwUaoLeyyZQ_1UiVwgS-12" value="" style="points=[[0.145,0.145,0],[0.5,0,0],[0.855,0.145,0],[1,0.5,0],[0.855,0.855,0],[0.5,1,0],[0.145,0.855,0],[0,0.5,0]];shape=mxgraph.bpmn.event;html=1;verticalLabelPosition=bottom;labelBackgroundColor=#ffffff;verticalAlign=top;align=center;perimeter=ellipsePerimeter;outlineConnect=0;aspect=fixed;outline=standard;symbol=timer;fontSize=16;" parent="1" vertex="1">
          <mxGeometry x="401" y="510" width="50" height="50" as="geometry" />
        </mxCell>
        <mxCell id="2qwUaoLeyyZQ_1UiVwgS-13" value="" style="points=[[0.25,0.25,0],[0.5,0,0],[0.75,0.25,0],[1,0.5,0],[0.75,0.75,0],[0.5,1,0],[0.25,0.75,0],[0,0.5,0]];shape=mxgraph.bpmn.gateway2;html=1;verticalLabelPosition=bottom;labelBackgroundColor=#ffffff;verticalAlign=top;align=center;perimeter=rhombusPerimeter;outlineConnect=0;outline=none;symbol=none;gwType=exclusive;fontSize=16;" parent="1" vertex="1">
          <mxGeometry x="41" y="438" width="50" height="50" as="geometry" />
        </mxCell>
        <mxCell id="2qwUaoLeyyZQ_1UiVwgS-14" value="" style="points=[[0.25,0.25,0],[0.5,0,0],[0.75,0.25,0],[1,0.5,0],[0.75,0.75,0],[0.5,1,0],[0.25,0.75,0],[0,0.5,0]];shape=mxgraph.bpmn.gateway2;html=1;verticalLabelPosition=bottom;labelBackgroundColor=#ffffff;verticalAlign=top;align=center;perimeter=rhombusPerimeter;outlineConnect=0;outline=end;symbol=general;fontSize=16;" parent="1" vertex="1">
          <mxGeometry x="41" y="518" width="50" height="50" as="geometry" />
        </mxCell>
        <mxCell id="2qwUaoLeyyZQ_1UiVwgS-15" value="" style="points=[[0.25,0.25,0],[0.5,0,0],[0.75,0.25,0],[1,0.5,0],[0.75,0.75,0],[0.5,1,0],[0.25,0.75,0],[0,0.5,0]];shape=mxgraph.bpmn.gateway2;html=1;verticalLabelPosition=bottom;labelBackgroundColor=#ffffff;verticalAlign=top;align=center;perimeter=rhombusPerimeter;outlineConnect=0;outline=none;symbol=none;gwType=parallel;fontSize=16;" parent="1" vertex="1">
          <mxGeometry x="41" y="598" width="50" height="50" as="geometry" />
        </mxCell>
        <mxCell id="2qwUaoLeyyZQ_1UiVwgS-16" value="&lt;h1&gt;&lt;b style=&quot;border-color: var(--border-color);&quot;&gt;&lt;font style=&quot;font-size: 18px;&quot;&gt;BPMN. Наиболее распространенные элементы&lt;/font&gt;&lt;/b&gt;&lt;br&gt;&lt;/h1&gt;" style="text;html=1;strokeColor=none;fillColor=none;spacing=5;spacingTop=-20;whiteSpace=wrap;overflow=hidden;rounded=0;fontSize=16;align=center;" parent="1" vertex="1">
          <mxGeometry x="188" y="10" width="451" height="60" as="geometry" />
        </mxCell>
        <mxCell id="2qwUaoLeyyZQ_1UiVwgS-17" value="- начальное событие" style="text;html=1;strokeColor=none;fillColor=none;align=left;verticalAlign=middle;whiteSpace=wrap;rounded=0;fontSize=16;" parent="1" vertex="1">
          <mxGeometry x="471" y="200" width="230" height="30" as="geometry" />
        </mxCell>
        <mxCell id="2qwUaoLeyyZQ_1UiVwgS-18" value="- промежуточное событие" style="text;html=1;strokeColor=none;fillColor=none;align=left;verticalAlign=middle;whiteSpace=wrap;rounded=0;fontSize=16;" parent="1" vertex="1">
          <mxGeometry x="471" y="280" width="250" height="30" as="geometry" />
        </mxCell>
        <mxCell id="2qwUaoLeyyZQ_1UiVwgS-19" value="- конечное событие" style="text;html=1;strokeColor=none;fillColor=none;align=left;verticalAlign=middle;whiteSpace=wrap;rounded=0;fontSize=16;" parent="1" vertex="1">
          <mxGeometry x="471" y="360" width="170" height="30" as="geometry" />
        </mxCell>
        <mxCell id="2qwUaoLeyyZQ_1UiVwgS-20" value="- сообщение" style="text;html=1;strokeColor=none;fillColor=none;align=left;verticalAlign=middle;whiteSpace=wrap;rounded=0;fontSize=16;" parent="1" vertex="1">
          <mxGeometry x="471" y="440" width="170" height="30" as="geometry" />
        </mxCell>
        <mxCell id="2qwUaoLeyyZQ_1UiVwgS-21" value="- таймер" style="text;html=1;strokeColor=none;fillColor=none;align=left;verticalAlign=middle;whiteSpace=wrap;rounded=0;fontSize=16;" parent="1" vertex="1">
          <mxGeometry x="471" y="520" width="170" height="30" as="geometry" />
        </mxCell>
        <mxCell id="eJI23vzdxuldbTUaO5t--1" value="- задача" style="text;html=1;strokeColor=none;fillColor=none;align=left;verticalAlign=middle;whiteSpace=wrap;rounded=0;fontSize=16;" parent="1" vertex="1">
          <mxGeometry x="120" y="200" width="230" height="30" as="geometry" />
        </mxCell>
        <mxCell id="eJI23vzdxuldbTUaO5t--2" value="- свёрнутый подпроцесс" style="text;html=1;strokeColor=none;fillColor=none;align=left;verticalAlign=middle;whiteSpace=wrap;rounded=0;fontSize=16;" parent="1" vertex="1">
          <mxGeometry x="120" y="280" width="230" height="30" as="geometry" />
        </mxCell>
        <mxCell id="eJI23vzdxuldbTUaO5t--3" value="" style="points=[[0.25,0,0],[0.5,0,0],[0.75,0,0],[1,0.25,0],[1,0.5,0],[1,0.75,0],[0.75,1,0],[0.5,1,0],[0.25,1,0],[0,0.75,0],[0,0.5,0],[0,0.25,0]];shape=mxgraph.bpmn.task;whiteSpace=wrap;rectStyle=rounded;size=10;html=1;taskMarker=abstract;isLoopStandard=1;fontSize=18;" parent="1" vertex="1">
          <mxGeometry x="20" y="350" width="90" height="50" as="geometry" />
        </mxCell>
        <mxCell id="eJI23vzdxuldbTUaO5t--4" value="- циклическое действие" style="text;html=1;strokeColor=none;fillColor=none;align=left;verticalAlign=middle;whiteSpace=wrap;rounded=0;fontSize=16;" parent="1" vertex="1">
          <mxGeometry x="120" y="360" width="230" height="30" as="geometry" />
        </mxCell>
        <mxCell id="eJI23vzdxuldbTUaO5t--5" value="" style="dashed=1;dashPattern=8 4;endArrow=blockThin;endFill=1;startArrow=oval;startFill=0;endSize=6;startSize=4;html=1;rounded=0;fontSize=18;" parent="1" edge="1">
          <mxGeometry width="160" relative="1" as="geometry">
            <mxPoint x="400" y="80" as="sourcePoint" />
            <mxPoint x="520" y="80.5" as="targetPoint" />
          </mxGeometry>
        </mxCell>
        <mxCell id="eJI23vzdxuldbTUaO5t--6" value="- поток сообщений" style="text;html=1;strokeColor=none;fillColor=none;align=left;verticalAlign=middle;whiteSpace=wrap;rounded=0;fontSize=16;" parent="1" vertex="1">
          <mxGeometry x="540" y="70" width="230" height="30" as="geometry" />
        </mxCell>
        <mxCell id="eJI23vzdxuldbTUaO5t--7" value="- поток последовательности" style="text;html=1;strokeColor=none;fillColor=none;align=left;verticalAlign=middle;whiteSpace=wrap;rounded=0;fontSize=16;" parent="1" vertex="1">
          <mxGeometry x="540" y="103" width="250" height="30" as="geometry" />
        </mxCell>
        <mxCell id="eJI23vzdxuldbTUaO5t--8" value="" style="edgeStyle=elbowEdgeStyle;fontSize=12;html=1;endFill=0;startFill=0;endSize=6;startSize=6;dashed=1;dashPattern=1 4;endArrow=none;startArrow=none;rounded=0;" parent="1" edge="1">
          <mxGeometry width="160" relative="1" as="geometry">
            <mxPoint x="400" y="157" as="sourcePoint" />
            <mxPoint x="520" y="157" as="targetPoint" />
          </mxGeometry>
        </mxCell>
        <mxCell id="eJI23vzdxuldbTUaO5t--9" value="- ассоциация" style="text;html=1;strokeColor=none;fillColor=none;align=left;verticalAlign=middle;whiteSpace=wrap;rounded=0;fontSize=16;" parent="1" vertex="1">
          <mxGeometry x="540" y="141" width="250" height="30" as="geometry" />
        </mxCell>
        <mxCell id="eJI23vzdxuldbTUaO5t--10" value="- исключающий шлюз&amp;nbsp; &amp;nbsp; &amp;nbsp;&lt;br&gt;&amp;nbsp; (ИЛИ/ИЛИ)" style="text;html=1;strokeColor=none;fillColor=none;align=left;verticalAlign=middle;whiteSpace=wrap;rounded=0;fontSize=16;" parent="1" vertex="1">
          <mxGeometry x="120" y="450" width="230" height="30" as="geometry" />
        </mxCell>
        <mxCell id="eJI23vzdxuldbTUaO5t--11" value="- включающий шлюз&amp;nbsp; &lt;br style=&quot;font-size: 16px;&quot;&gt;&amp;nbsp; (И/ИЛИ)" style="text;html=1;strokeColor=none;fillColor=none;align=left;verticalAlign=middle;whiteSpace=wrap;rounded=0;fontSize=16;" parent="1" vertex="1">
          <mxGeometry x="120" y="530" width="230" height="30" as="geometry" />
        </mxCell>
        <mxCell id="eJI23vzdxuldbTUaO5t--12" value="- параллельный шлюз&amp;nbsp; &amp;nbsp; &lt;br&gt;&amp;nbsp; (И/И)" style="text;html=1;strokeColor=none;fillColor=none;align=left;verticalAlign=middle;whiteSpace=wrap;rounded=0;fontSize=16;" parent="1" vertex="1">
          <mxGeometry x="120" y="608" width="230" height="30" as="geometry" />
        </mxCell>
        <mxCell id="eJI23vzdxuldbTUaO5t--17" value="&lt;font style=&quot;font-size: 10px;&quot;&gt;Пул&lt;/font&gt;" style="swimlane;startSize=20;horizontal=0;html=1;whiteSpace=wrap;fontSize=18;" parent="1" vertex="1">
          <mxGeometry x="20" y="80" width="100" height="80" as="geometry" />
        </mxCell>
        <mxCell id="eJI23vzdxuldbTUaO5t--22" value="&lt;font style=&quot;font-size: 8px;&quot;&gt;Дорожка&lt;/font&gt;" style="swimlane;html=1;startSize=20;fontStyle=0;collapsible=0;horizontal=0;swimlaneLine=1;swimlaneFillColor=#ffffff;strokeWidth=2;whiteSpace=wrap;fontSize=18;align=center;" parent="eJI23vzdxuldbTUaO5t--17" vertex="1">
          <mxGeometry x="20" width="80" height="40" as="geometry" />
        </mxCell>
        <mxCell id="eJI23vzdxuldbTUaO5t--24" value="&lt;font style=&quot;font-size: 8px;&quot;&gt;Дорожка&lt;/font&gt;" style="swimlane;html=1;startSize=20;fontStyle=0;collapsible=0;horizontal=0;swimlaneLine=1;swimlaneFillColor=#ffffff;strokeWidth=2;whiteSpace=wrap;fontSize=18;" parent="1" vertex="1">
          <mxGeometry x="40" y="120" width="80" height="40" as="geometry" />
        </mxCell>
      </root>
    </mxGraphModel>
  </diagram>
</mxfile>
